<?xml version="1.0" standalone="no"?>
<!DOCTYPE svg PUBLIC "-//W3C//DTD SVG 1.1//EN" "http://www.w3.org/Graphics/SVG/1.1/DTD/svg11.dtd" >
<svg xmlns="http://www.w3.org/2000/svg">
<metadata></metadata>
<defs>
<font id="astronautregular" horiz-adv-x="1019" >
<font-face units-per-em="2048" ascent="1638" descent="-410" />
<missing-glyph horiz-adv-x="653" />
<glyph horiz-adv-x="2048" />
<glyph horiz-adv-x="2048" />
<glyph unicode="&#xd;" horiz-adv-x="653" />
<glyph unicode=" "  horiz-adv-x="653" />
<glyph unicode="&#x09;" horiz-adv-x="653" />
<glyph unicode="&#xa0;" horiz-adv-x="653" />
<glyph unicode="!" horiz-adv-x="344" d="M152 0v193h192v-193h-192zM152 389v29h192v-193h-29q-68 0 -115.5 48.5t-47.5 115.5zM152 451v192h192v-192h-192zM152 676v192h192v-192h-192zM152 901v193h192v-193h-192z" />
<glyph unicode="&#x22;" horiz-adv-x="569" d="M152 840v28h192v-192h-29q-68 0 -115.5 48t-47.5 116zM152 901v193h192v-193h-192zM377 840v28h192v-192h-28q-68 0 -116 48t-48 116zM377 901v193h192v-193h-192z" />
<glyph unicode="#" d="M152 225v193h192v-193h-192zM152 676v192h192v-192h-192zM377 0v193h192v-193h-192zM377 225v193h192v-193h-192zM377 676v192h192v-192h-192zM377 901v193h192v-193h-192zM602 0v193h193v-193h-193zM602 225v193h193v-193h-193zM602 676v192h193v-192h-193zM602 901v193 h193v-193h-193zM827 225v193h193v-193h-193zM827 676v192h193v-192h-193z" />
<glyph unicode="$" horiz-adv-x="794" d="M152 225v193h192v-193h-192zM152 614v29h192v-192h-29q-68 0 -115.5 48t-47.5 115zM152 676v29q0 68 48 115.5t115 47.5h29v-192h-192zM377 0v193h192v-193h-192zM377 225v193h192v-193h-192zM377 451v192h192v-192h-192zM377 676v192h192v-192h-192zM377 901v193h192 v-193h-192zM602 225v193h193v-29q0 -68 -48.5 -116t-115.5 -48h-29zM602 451v192h29q68 0 116 -48t48 -116v-28h-193zM602 676v192h193v-192h-193z" />
<glyph unicode="%" horiz-adv-x="1245" d="M152 0v193h192v-193h-192zM152 840v28h192v-192h-29q-68 0 -115.5 48t-47.5 116zM152 901v29q0 68 48 116t115 48h29v-193h-192zM377 225v193h192v-193h-192zM377 676v192h192v-28q0 -68 -48 -116t-115 -48h-29zM377 901v193h29q68 0 115.5 -48.5t47.5 -115.5v-29h-192z M602 451v192h193v-192h-193zM827 164v29h193v-193h-29q-68 0 -116 48t-48 116zM827 225v29q0 68 48.5 116t115.5 48h29v-193h-193zM827 676v192h193v-192h-193zM827 901v193h193v-193h-193zM1053 0v193h192v-29q0 -68 -48 -116t-116 -48h-28zM1053 225v193h28q68 0 116 -48 t48 -116v-29h-192z" />
<glyph unicode="&#x26;" d="M152 164v29h192v-193h-29q-68 0 -115.5 48t-47.5 116zM152 225v29q0 68 48 116t115 48h29v-193h-192zM152 614v29h192v-192h-29q-68 0 -115.5 48t-47.5 115zM152 676v192h192v-192h-192zM152 901v29q0 68 48 116t115 48h29v-193h-192zM377 0v193h192v-193h-192zM377 451 v192h192v-192h-192zM377 901v193h192v-193h-192zM602 0v193h193v-29q0 -68 -48.5 -116t-115.5 -48h-29zM602 225v193h193v-193h-193zM602 451v28q0 68 48 116t116 48h29v-192h-193zM602 901v193h193v-193h-193zM827 451v192h193v-192h-193zM827 901v193h193v-193h-193z" />
<glyph unicode="'" horiz-adv-x="344" d="M152 840v28h192v-192h-29q-68 0 -115.5 48t-47.5 116zM152 901v193h192v-193h-192z" />
<glyph unicode="(" horiz-adv-x="569" d="M152 164v29h192v-193h-29q-68 0 -115.5 48t-47.5 116zM152 225v193h192v-193h-192zM152 451v192h192v-192h-192zM152 676v192h192v-192h-192zM152 901v29q0 68 48 116t115 48h29v-193h-192zM377 0v193h192v-193h-192zM377 901v193h192v-193h-192z" />
<glyph unicode=")" horiz-adv-x="569" d="M152 0v193h192v-193h-192zM152 901v193h192v-193h-192zM377 0v193h192v-29q0 -68 -48 -116t-115 -48h-29zM377 225v193h192v-193h-192zM377 451v192h192v-192h-192zM377 676v192h192v-192h-192zM377 901v193h29q68 0 115.5 -48.5t47.5 -115.5v-29h-192z" />
<glyph unicode="*" horiz-adv-x="569" d="M152 676v29q0 68 48 115.5t115 47.5h29v-192h-192zM152 1065v29h192v-193h-29q-68 0 -115.5 48t-47.5 116zM377 676v192h29q68 0 115.5 -48t47.5 -115v-29h-192zM377 901v193h192v-29q0 -68 -48 -116t-115 -48h-29z" />
<glyph unicode="+" horiz-adv-x="794" d="M152 451v192h192v-192h-192zM377 225v193h192v-193h-192zM377 451v192h192v-192h-192zM377 676v192h192v-192h-192zM602 451v192h193v-192h-193z" />
<glyph unicode="," horiz-adv-x="344" d="M152 0v193h192v-193h-192zM152 -33h192v-28q0 -68 -48 -116t-116 -48h-28v192z" />
<glyph unicode="-" horiz-adv-x="794" d="M152 451v192h192v-192h-192zM377 451v192h192v-192h-192zM602 451v192h193v-192h-193z" />
<glyph unicode="." horiz-adv-x="344" d="M152 0v193h192v-193h-192z" />
<glyph unicode="/" horiz-adv-x="1245" d="M152 0v193h192v-193h-192zM377 225v193h192v-193h-192zM602 451v192h193v-192h-193zM827 676v192h193v-192h-193zM827 901v193h193v-193h-193z" />
<glyph unicode="0" d="M152 164v29h192v-193h-29q-68 0 -115.5 48t-47.5 116zM152 225v193h192v-193h-192zM152 451v192h192v-192h-192zM152 676v192h192v-192h-192zM152 901v29q0 68 48 116t115 48h29v-193h-192zM377 0v193h192v-193h-192zM377 901v193h192v-193h-192zM602 0v193h193v-193 h-193zM602 901v193h193v-193h-193zM827 0v193h193v-29q0 -68 -48 -116t-116 -48h-29zM827 225v193h193v-193h-193zM827 451v192h193v-192h-193zM827 676v192h193v-192h-193zM827 901v193h29q68 0 116 -48.5t48 -115.5v-29h-193z" />
<glyph unicode="1" horiz-adv-x="569" d="M152 901v29q0 68 48 116t115 48h29v-193h-192zM377 0v193h192v-193h-192zM377 225v193h192v-193h-192zM377 451v192h192v-192h-192zM377 676v192h192v-192h-192zM377 901v193h192v-193h-192z" />
<glyph unicode="2" d="M152 0v193h192v-193h-192zM152 225v193h192v-193h-192zM152 451v28q0 68 48 116t115 48h29v-192h-192zM152 901v193h192v-193h-192zM377 0v193h192v-193h-192zM377 451v192h192v-192h-192zM377 901v193h192v-193h-192zM602 0v193h193v-193h-193zM602 451v192h193v-192 h-193zM602 901v193h193v-193h-193zM827 0v193h193v-193h-193zM827 451v192h193v-29q0 -68 -48 -115.5t-116 -47.5h-29zM827 676v192h193v-192h-193zM827 901v193h29q68 0 116 -48.5t48 -115.5v-29h-193z" />
<glyph unicode="3" d="M152 0v193h192v-193h-192zM152 901v193h192v-193h-192zM377 0v193h192v-193h-192zM377 451v192h192v-192h-192zM377 901v193h192v-193h-192zM602 0v193h193v-193h-193zM602 451v192h193v-192h-193zM602 901v193h193v-193h-193zM827 0v193h193v-29q0 -68 -48 -116 t-116 -48h-29zM827 225v193h29q68 0 116 -48t48 -116v-29h-193zM827 451v192h193v-29q0 -68 -48 -115.5t-116 -47.5h-29zM827 676v192h193v-192h-193zM827 901v193h29q68 0 116 -48.5t48 -115.5v-29h-193z" />
<glyph unicode="4" d="M152 389v29h192v-193h-29q-68 0 -115.5 48.5t-47.5 115.5zM152 451v192h192v-192h-192zM152 676v192h192v-192h-192zM152 901v193h192v-193h-192zM377 225v193h192v-193h-192zM602 225v193h193v-193h-193zM827 0v193h193v-193h-193zM827 225v193h193v-193h-193zM827 451 v192h193v-192h-193zM827 676v192h193v-192h-193zM827 901v193h193v-193h-193z" />
<glyph unicode="5" d="M152 0v193h192v-193h-192zM152 614v29h192v-192h-29q-68 0 -115.5 48t-47.5 115zM152 676v192h192v-192h-192zM152 901v193h192v-193h-192zM377 0v193h192v-193h-192zM377 451v192h192v-192h-192zM377 901v193h192v-193h-192zM602 0v193h193v-193h-193zM602 451v192h193 v-192h-193zM602 901v193h193v-193h-193zM827 0v193h193v-29q0 -68 -48 -116t-116 -48h-29zM827 225v193h193v-193h-193zM827 451v192h29q68 0 116 -48t48 -116v-28h-193zM827 901v193h193v-193h-193z" />
<glyph unicode="6" d="M152 164v29h192v-193h-29q-68 0 -115.5 48t-47.5 116zM152 225v193h192v-193h-192zM152 451v192h192v-192h-192zM152 676v192h192v-192h-192zM152 901v29q0 68 48 116t115 48h29v-193h-192zM377 0v193h192v-193h-192zM377 451v192h192v-192h-192zM377 901v193h192v-193 h-192zM602 0v193h193v-193h-193zM602 451v192h193v-192h-193zM602 901v193h193v-193h-193zM827 0v193h193v-29q0 -68 -48 -116t-116 -48h-29zM827 225v193h193v-193h-193zM827 451v192h29q68 0 116 -48t48 -116v-28h-193zM827 901v193h193v-193h-193z" />
<glyph unicode="7" d="M152 901v193h192v-193h-192zM377 901v193h192v-193h-192zM602 901v193h193v-193h-193zM827 0v193h193v-193h-193zM827 225v193h193v-193h-193zM827 451v192h193v-192h-193zM827 676v192h193v-192h-193zM827 901v193h29q68 0 116 -48.5t48 -115.5v-29h-193z" />
<glyph unicode="8" d="M152 164v29h192v-193h-29q-68 0 -115.5 48t-47.5 116zM152 225v29q0 68 48 116t115 48h29v-193h-192zM152 614v29h192v-192h-29q-68 0 -115.5 48t-47.5 115zM152 676v192h192v-192h-192zM152 901v29q0 68 48 116t115 48h29v-193h-192zM377 0v193h192v-193h-192zM377 451 v192h192v-192h-192zM377 901v193h192v-193h-192zM602 0v193h193v-193h-193zM602 451v192h193v-192h-193zM602 901v193h193v-193h-193zM827 0v193h193v-29q0 -68 -48 -116t-116 -48h-29zM827 225v193h29q68 0 116 -48t48 -116v-29h-193zM827 451v192h193v-29 q0 -68 -48 -115.5t-116 -47.5h-29zM827 676v192h193v-192h-193zM827 901v193h29q68 0 116 -48.5t48 -115.5v-29h-193z" />
<glyph unicode="9" d="M152 0v193h192v-193h-192zM152 614v29h192v-192h-29q-68 0 -115.5 48t-47.5 115zM152 676v192h192v-192h-192zM152 901v29q0 68 48 116t115 48h29v-193h-192zM377 0v193h192v-193h-192zM377 451v192h192v-192h-192zM377 901v193h192v-193h-192zM602 0v193h193v-193h-193z M602 451v192h193v-192h-193zM602 901v193h193v-193h-193zM827 0v193h193v-29q0 -68 -48 -116t-116 -48h-29zM827 225v193h193v-193h-193zM827 451v192h193v-192h-193zM827 676v192h193v-192h-193zM827 901v193h29q68 0 116 -48.5t48 -115.5v-29h-193z" />
<glyph unicode=":" horiz-adv-x="344" d="M152 0v193h192v-193h-192zM152 451v192h192v-192h-192z" />
<glyph unicode=";" horiz-adv-x="344" d="M152 0v193h192v-193h-192zM152 -33h192v-28q0 -68 -48 -116t-116 -48h-28v192zM152 451v192h192v-192h-192z" />
<glyph unicode="&#x3c;" horiz-adv-x="569" d="M152 389v29h192v-193h-29q-68 0 -115.5 48.5t-47.5 115.5zM152 451v28q0 68 48 116t115 48h29v-192h-192zM377 225v193h192v-193h-192zM377 451v192h192v-192h-192z" />
<glyph unicode="=" d="M152 0v193h192v-193h-192zM152 451v192h192v-192h-192zM377 0v193h192v-193h-192zM377 451v192h192v-192h-192zM602 0v193h193v-193h-193zM602 451v192h193v-192h-193zM827 0v193h193v-193h-193zM827 451v192h193v-192h-193z" />
<glyph unicode="&#x3e;" horiz-adv-x="569" d="M152 225h192v193h-192v-193zM152 451h192v192h-192v-192zM377 225h29q68 0 115.5 48.5t47.5 115.5v29h-192v-193zM377 451h192v28q0 68 -48 116t-115 48h-29v-192z" />
<glyph unicode="?" d="M152 0v193h192v-193h-192zM152 389v29h192v-193h-29q-68 0 -115.5 48.5t-47.5 115.5zM152 451v28q0 68 48 116t115 48h29v-192h-192zM152 901v193h192v-193h-192zM377 451v192h192v-192h-192zM377 901v193h192v-193h-192zM602 451v192h193v-192h-193zM602 901v193h193 v-193h-193zM827 451v192h193v-29q0 -68 -48 -115.5t-116 -47.5h-29zM827 676v192h193v-192h-193zM827 901v193h29q68 0 116 -48.5t48 -115.5v-29h-193z" />
<glyph unicode="@" d="M152 164v29h192v-193h-29q-68 0 -115.5 48t-47.5 116zM152 225v193h192v-193h-192zM152 451v192h192v-192h-192zM152 676v192h192v-192h-192zM152 901v29q0 68 48 116t115 48h29v-193h-192zM377 0v193h192v-193h-192zM377 901v193h192v-193h-192zM602 0v193h193v-193 h-193zM602 451v192h193v-192h-193zM602 676v192h193v-192h-193zM602 901v193h193v-193h-193zM827 0v193h193v-193h-193zM827 451v192h193v-192h-193zM827 676v192h193v-192h-193zM827 901v193h29q68 0 116 -48.5t48 -115.5v-29h-193z" />
<glyph unicode="A" d="M152 0v193h192v-193h-192zM152 225v193h192v-193h-192zM152 451v192h192v-192h-192zM152 676v192h192v-192h-192zM152 901v29q0 68 48 116t115 48h29v-193h-192zM377 225v193h192v-193h-192zM377 901v193h192v-193h-192zM602 225v193h193v-193h-193zM602 901v193h193 v-193h-193zM827 0v193h193v-193h-193zM827 225v193h193v-193h-193zM827 451v192h193v-192h-193zM827 676v192h193v-192h-193zM827 901v193h29q68 0 116 -48.5t48 -115.5v-29h-193z" />
<glyph unicode="B" d="M152 0v193h192v-193h-192zM152 225v193h192v-193h-192zM152 451v192h192v-192h-192zM152 676v192h192v-192h-192zM152 901v193h192v-193h-192zM377 0v193h192v-193h-192zM377 451v192h192v-192h-192zM377 901v193h192v-193h-192zM602 0v193h193v-193h-193zM602 451v192 h193v-192h-193zM602 901v193h193v-193h-193zM827 0v193h193v-29q0 -68 -48 -116t-116 -48h-29zM827 225v193h29q68 0 116 -48t48 -116v-29h-193zM827 451v192h193v-29q0 -68 -48 -115.5t-116 -47.5h-29zM827 676v192h193v-192h-193zM827 901v193h29q68 0 116 -48.5 t48 -115.5v-29h-193z" />
<glyph unicode="C" d="M152 164v29h192v-193h-29q-68 0 -115.5 48t-47.5 116zM152 225v193h192v-193h-192zM152 451v192h192v-192h-192zM152 676v192h192v-192h-192zM152 901v29q0 68 48 116t115 48h29v-193h-192zM377 0v193h192v-193h-192zM377 901v193h192v-193h-192zM602 0v193h193v-193 h-193zM602 901v193h193v-193h-193zM827 0v193h193v-29q0 -68 -48 -116t-116 -48h-29zM827 225v193h193v-193h-193zM827 676v192h193v-192h-193zM827 901v193h29q68 0 116 -48.5t48 -115.5v-29h-193z" />
<glyph unicode="D" d="M152 164v29h192v-193h-29q-68 0 -115.5 48t-47.5 116zM152 225v193h192v-193h-192zM152 451v192h192v-192h-192zM152 676v192h192v-192h-192zM152 901v193h192v-193h-192zM377 0v193h192v-193h-192zM377 901v193h192v-193h-192zM602 0v193h193v-193h-193zM602 901v193 h193v-193h-193zM827 0v193h193v-29q0 -68 -48 -116t-116 -48h-29zM827 225v193h193v-193h-193zM827 451v192h193v-192h-193zM827 676v192h193v-192h-193zM827 901v193h29q68 0 116 -48.5t48 -115.5v-29h-193z" />
<glyph unicode="E" d="M152 164v29h192v-193h-29q-68 0 -115.5 48t-47.5 116zM152 225v193h192v-193h-192zM152 451v192h192v-192h-192zM152 676v192h192v-192h-192zM152 901v29q0 68 48 116t115 48h29v-193h-192zM377 0v193h192v-193h-192zM377 451v192h192v-192h-192zM377 901v193h192v-193 h-192zM602 0v193h193v-193h-193zM602 451v192h193v-192h-193zM602 901v193h193v-193h-193zM827 0v193h193v-193h-193zM827 901v193h193v-193h-193z" />
<glyph unicode="F" d="M152 0v193h192v-193h-192zM152 225v193h192v-193h-192zM152 451v192h192v-192h-192zM152 676v192h192v-192h-192zM152 901v29q0 68 48 116t115 48h29v-193h-192zM377 451v192h192v-192h-192zM377 901v193h192v-193h-192zM602 451v192h193v-192h-193zM602 901v193h193 v-193h-193zM827 901v193h193v-193h-193z" />
<glyph unicode="G" d="M152 164v29h192v-193h-29q-68 0 -115.5 48t-47.5 116zM152 225v193h192v-193h-192zM152 451v192h192v-192h-192zM152 676v192h192v-192h-192zM152 901v29q0 68 48 116t115 48h29v-193h-192zM377 0v193h192v-193h-192zM377 901v193h192v-193h-192zM602 0v193h193v-193 h-193zM602 451v192h193v-192h-193zM602 901v193h193v-193h-193zM827 0v193h193v-29q0 -68 -48 -116t-116 -48h-29zM827 225v193h193v-193h-193zM827 451v192h193v-192h-193zM827 901v193h193v-193h-193z" />
<glyph unicode="H" d="M152 0v193h192v-193h-192zM152 225v193h192v-193h-192zM152 451v192h192v-192h-192zM152 676v192h192v-192h-192zM152 901v193h192v-193h-192zM377 225v193h192v-193h-192zM602 225v193h193v-193h-193zM827 0v193h193v-193h-193zM827 225v193h193v-193h-193zM827 451v192 h193v-192h-193zM827 676v192h193v-192h-193zM827 901v193h193v-193h-193z" />
<glyph unicode="I" horiz-adv-x="344" d="M152 0v193h192v-193h-192zM152 225v193h192v-193h-192zM152 451v192h192v-192h-192zM152 676v192h192v-192h-192zM152 901v193h192v-193h-192z" />
<glyph unicode="J" d="M152 164v29h192v-193h-29q-68 0 -115.5 48t-47.5 116zM152 225v193h192v-193h-192zM377 0v193h192v-193h-192zM602 0v193h193v-193h-193zM827 0v193h193v-29q0 -68 -48 -116t-116 -48h-29zM827 225v193h193v-193h-193zM827 451v192h193v-192h-193zM827 676v192h193v-192 h-193zM827 901v193h193v-193h-193z" />
<glyph unicode="K" d="M152 0v193h192v-193h-192zM152 225v193h192v-193h-192zM152 451v192h192v-192h-192zM152 676v192h192v-192h-192zM152 901v193h192v-193h-192zM377 225v193h192v-193h-192zM602 225v193h193v-193h-193zM827 0v193h193v-193h-193zM827 225v193h29q68 0 116 -48t48 -116 v-29h-193zM827 451v192h193v-29q0 -68 -48 -115.5t-116 -47.5h-29zM827 676v192h193v-192h-193zM827 901v193h193v-193h-193z" />
<glyph unicode="L" horiz-adv-x="794" d="M152 164v29h192v-193h-29q-68 0 -115.5 48t-47.5 116zM152 225v193h192v-193h-192zM152 451v192h192v-192h-192zM152 676v192h192v-192h-192zM152 901v193h192v-193h-192zM377 0v193h192v-193h-192zM602 0v193h193v-193h-193z" />
<glyph unicode="M" horiz-adv-x="1245" d="M152 0v193h192v-193h-192zM152 225v193h192v-193h-192zM152 451v192h192v-192h-192zM152 676v192h192v-192h-192zM152 901v193h192v-193h-192zM377 901v193h192v-193h-192zM602 0v193h193v-193h-193zM602 225v193h193v-193h-193zM602 451v192h193v-192h-193zM602 676v192 h193v-192h-193zM602 901v193h29q68 0 116 -48.5t48 -115.5v-29h-193zM827 901v29q0 68 48.5 116t115.5 48h29v-193h-193zM1053 0v193h192v-193h-192zM1053 225v193h192v-193h-192zM1053 451v192h192v-192h-192zM1053 676v192h192v-192h-192zM1053 901v193h28q68 0 116 -48.5 t48 -115.5v-29h-192z" />
<glyph unicode="N" d="M152 0v193h192v-193h-192zM152 225v193h192v-193h-192zM152 451v192h192v-192h-192zM152 676v192h192v-192h-192zM152 901v193h192v-193h-192zM377 676v192h192v-192h-192zM377 901v193h29q68 0 115.5 -48.5t47.5 -115.5v-29h-192zM602 389v29h193v-193h-29 q-68 0 -116 48.5t-48 115.5zM602 451v192h193v-192h-193zM827 0v193h193v-193h-193zM827 225v193h193v-193h-193zM827 451v192h193v-192h-193zM827 676v192h193v-192h-193zM827 901v193h193v-193h-193z" />
<glyph unicode="O" d="M152 164v29h192v-193h-29q-68 0 -115.5 48t-47.5 116zM152 225v193h192v-193h-192zM152 451v192h192v-192h-192zM152 676v192h192v-192h-192zM152 901v29q0 68 48 116t115 48h29v-193h-192zM377 0v193h192v-193h-192zM377 901v193h192v-193h-192zM602 0v193h193v-193 h-193zM602 901v193h193v-193h-193zM827 0v193h193v-29q0 -68 -48 -116t-116 -48h-29zM827 225v193h193v-193h-193zM827 451v192h193v-192h-193zM827 676v192h193v-192h-193zM827 901v193h29q68 0 116 -48.5t48 -115.5v-29h-193z" />
<glyph unicode="P" d="M152 0v193h192v-193h-192zM152 225v193h192v-193h-192zM152 451v192h192v-192h-192zM152 676v192h192v-192h-192zM152 901v193h192v-193h-192zM377 225v193h192v-193h-192zM377 901v193h192v-193h-192zM602 225v193h193v-193h-193zM602 901v193h193v-193h-193zM827 225 v193h193v-29q0 -68 -48 -116t-116 -48h-29zM827 451v192h193v-192h-193zM827 676v192h193v-192h-193zM827 901v193h29q68 0 116 -48.5t48 -115.5v-29h-193z" />
<glyph unicode="Q" d="M152 164v29h192v-193h-29q-68 0 -115.5 48t-47.5 116zM152 225v193h192v-193h-192zM152 451v192h192v-192h-192zM152 676v192h192v-192h-192zM152 901v29q0 68 48 116t115 48h29v-193h-192zM377 0v193h192v-193h-192zM377 901v193h192v-193h-192zM602 0v193h193v-193 h-193zM602 -33h193v-28q0 -68 -48.5 -116t-115.5 -48h-29v192zM602 901v193h193v-193h-193zM827 0v193h193v-29q0 -68 -48 -116t-116 -48h-29zM827 225v193h193v-193h-193zM827 451v192h193v-192h-193zM827 676v192h193v-192h-193zM827 901v193h29q68 0 116 -48.5t48 -115.5 v-29h-193z" />
<glyph unicode="R" d="M152 0v193h192v-193h-192zM152 225v193h192v-193h-192zM152 451v192h192v-192h-192zM152 676v192h192v-192h-192zM152 901v193h192v-193h-192zM377 225v193h192v-193h-192zM377 901v193h192v-193h-192zM602 225v193h193v-193h-193zM602 901v193h193v-193h-193zM827 0v193 h193v-193h-193zM827 225v193h29q68 0 116 -48t48 -116v-29h-193zM827 451v192h193v-29q0 -68 -48 -115.5t-116 -47.5h-29zM827 676v192h193v-192h-193zM827 901v193h29q68 0 116 -48.5t48 -115.5v-29h-193z" />
<glyph unicode="S" d="M152 0v193h192v-193h-192zM152 614v29h192v-192h-29q-68 0 -115.5 48t-47.5 115zM152 676v192h192v-192h-192zM152 901v29q0 68 48 116t115 48h29v-193h-192zM377 0v193h192v-193h-192zM377 451v192h192v-192h-192zM377 901v193h192v-193h-192zM602 0v193h193v-193h-193z M602 451v192h193v-192h-193zM602 901v193h193v-193h-193zM827 0v193h193v-29q0 -68 -48 -116t-116 -48h-29zM827 225v193h193v-193h-193zM827 451v192h29q68 0 116 -48t48 -116v-28h-193zM827 901v193h193v-193h-193z" />
<glyph unicode="T" horiz-adv-x="794" d="M152 901v193h192v-193h-192zM377 0v193h192v-193h-192zM377 225v193h192v-193h-192zM377 451v192h192v-192h-192zM377 676v192h192v-192h-192zM377 901v193h192v-193h-192zM602 901v193h193v-193h-193z" />
<glyph unicode="U" d="M152 164v29h192v-193h-29q-68 0 -115.5 48t-47.5 116zM152 225v193h192v-193h-192zM152 451v192h192v-192h-192zM152 676v192h192v-192h-192zM152 901v193h192v-193h-192zM377 0v193h192v-193h-192zM602 0v193h193v-193h-193zM827 0v193h193v-193h-193zM827 225v193h193 v-193h-193zM827 451v192h193v-192h-193zM827 676v192h193v-192h-193zM827 901v193h193v-193h-193z" />
<glyph unicode="V" d="M152 164v29h192v-193h-29q-68 0 -115.5 48t-47.5 116zM152 225v193h192v-193h-192zM152 451v192h192v-192h-192zM152 676v192h192v-192h-192zM152 901v193h192v-193h-192zM377 0v193h192v-193h-192zM602 0v193h193v-193h-193zM827 0v193h193v-29q0 -68 -48 -116t-116 -48 h-29zM827 225v193h193v-193h-193zM827 451v192h193v-192h-193zM827 676v192h193v-192h-193zM827 901v193h193v-193h-193z" />
<glyph unicode="W" horiz-adv-x="1245" d="M152 164v29h192v-193h-29q-68 0 -115.5 48t-47.5 116zM152 225v193h192v-193h-192zM152 451v192h192v-192h-192zM152 676v192h192v-192h-192zM152 901v193h192v-193h-192zM377 0v193h192v-193h-192zM602 0v193h193v-29q0 -68 -48.5 -116t-115.5 -48h-29zM602 225v193h193 v-193h-193zM602 451v192h193v-192h-193zM602 676v192h193v-192h-193zM602 901v193h193v-193h-193zM827 164v29h193v-193h-29q-68 0 -116 48t-48 116zM1053 0v193h192v-29q0 -68 -48 -116t-116 -48h-28zM1053 225v193h192v-193h-192zM1053 451v192h192v-192h-192zM1053 676 v192h192v-192h-192zM1053 901v193h192v-193h-192z" />
<glyph unicode="X" d="M152 0v193h192v-193h-192zM152 225v29q0 68 48 116t115 48h29v-193h-192zM152 614v29h192v-192h-29q-68 0 -115.5 48t-47.5 115zM152 676v192h192v-192h-192zM152 901v193h192v-193h-192zM377 225v193h192v-193h-192zM602 225v193h193v-193h-193zM827 0v193h193v-193 h-193zM827 225v193h29q68 0 116 -48t48 -116v-29h-193zM827 451v192h193v-29q0 -68 -48 -115.5t-116 -47.5h-29zM827 676v192h193v-192h-193zM827 901v193h193v-193h-193z" />
<glyph unicode="Y" d="M152 0v193h192v-193h-192zM152 614v29h192v-192h-29q-68 0 -115.5 48t-47.5 115zM152 676v192h192v-192h-192zM152 901v193h192v-193h-192zM377 0v193h192v-193h-192zM377 451v192h192v-192h-192zM602 0v193h193v-193h-193zM602 451v192h193v-192h-193zM827 0v193h193 v-29q0 -68 -48 -116t-116 -48h-29zM827 225v193h193v-193h-193zM827 451v192h193v-192h-193zM827 676v192h193v-192h-193zM827 901v193h193v-193h-193z" />
<glyph unicode="Z" d="M152 164v29h192v-193h-29q-68 0 -115.5 48t-47.5 116zM152 225v193h192v-193h-192zM152 451v28q0 68 48 116t115 48h29v-192h-192zM152 901v193h192v-193h-192zM377 0v193h192v-193h-192zM377 451v192h192v-192h-192zM377 901v193h192v-193h-192zM602 0v193h193v-193 h-193zM602 451v192h193v-192h-193zM602 901v193h193v-193h-193zM827 0v193h193v-193h-193zM827 451v192h193v-29q0 -68 -48 -115.5t-116 -47.5h-29zM827 676v192h193v-192h-193zM827 901v193h29q68 0 116 -48.5t48 -115.5v-29h-193z" />
<glyph unicode="[" horiz-adv-x="569" d="M152 164v29h192v-193h-29q-68 0 -115.5 48t-47.5 116zM152 225v193h192v-193h-192zM152 451v192h192v-192h-192zM152 676v192h192v-192h-192zM152 901v29q0 68 48 116t115 48h29v-193h-192zM377 0v193h192v-193h-192zM377 901v193h192v-193h-192z" />
<glyph unicode="\" horiz-adv-x="1245" d="M152 676h192v192h-192v-192zM152 901h192v193h-192v-193zM377 451h192v192h-192v-192zM602 225h193v193h-193v-193zM827 0h193v193h-193v-193z" />
<glyph unicode="]" horiz-adv-x="569" d="M152 0v193h192v-193h-192zM152 901v193h192v-193h-192zM377 0v193h192v-29q0 -68 -48 -116t-115 -48h-29zM377 225v193h192v-193h-192zM377 451v192h192v-192h-192zM377 676v192h192v-192h-192zM377 901v193h29q68 0 115.5 -48.5t47.5 -115.5v-29h-192z" />
<glyph unicode="^" horiz-adv-x="571" d="M152 901v29q0 68 48 116t115 48h29v-193h-192zM377 901v193h29q68 0 115.5 -48.5t47.5 -115.5v-29h-192z" />
<glyph unicode="_" d="M152 0v193h192v-193h-192zM377 0v193h192v-193h-192zM602 0v193h193v-193h-193zM827 0v193h193v-193h-193z" />
<glyph unicode="`" d="M152 1352v192h192v-192h-192zM152 1577v29q0 68 48 115.5t115 47.5h29v-192h-192zM377 1352v192h192v-192h-192z" />
<glyph unicode="a" d="M152 164v29h192v-193h-29q-68 0 -115.5 48t-47.5 116zM152 225v193h192v-193h-192zM152 451v28q0 68 48 116t115 48h29v-192h-192zM152 901v193h192v-193h-192zM377 0v193h192v-193h-192zM377 451v192h192v-192h-192zM377 901v193h192v-193h-192zM602 0v193h193v-193 h-193zM602 451v192h193v-192h-193zM602 901v193h193v-193h-193zM827 0v193h193v-29q0 -68 -48 -116t-116 -48h-29zM827 225v193h193v-193h-193zM827 451v192h193v-192h-193zM827 676v192h193v-192h-193zM827 901v193h29q68 0 116 -48.5t48 -115.5v-29h-193z" />
<glyph unicode="b" d="M152 164v29h192v-193h-29q-68 0 -115.5 48t-47.5 116zM152 225v193h192v-193h-192zM152 451v192h192v-192h-192zM152 676v192h192v-192h-192zM152 901v193h192v-193h-192zM377 0v193h192v-193h-192zM377 676v192h192v-192h-192zM602 0v193h193v-193h-193zM602 676v192 h193v-192h-193zM827 0v193h193v-29q0 -68 -48 -116t-116 -48h-29zM827 225v193h193v-193h-193zM827 451v192h193v-192h-193zM827 676v192h29q68 0 116 -48t48 -115v-29h-193z" />
<glyph unicode="c" d="M152 164v29h192v-193h-29q-68 0 -115.5 48t-47.5 116zM152 225v193h192v-193h-192zM152 451v192h192v-192h-192zM152 676v192h192v-192h-192zM152 901v29q0 68 48 116t115 48h29v-193h-192zM377 0v193h192v-193h-192zM377 901v193h192v-193h-192zM602 0v193h193v-193 h-193zM602 901v193h193v-193h-193zM827 0v193h193v-193h-193zM827 901v193h193v-193h-193z" />
<glyph unicode="d" d="M152 164v29h192v-193h-29q-68 0 -115.5 48t-47.5 116zM152 225v193h192v-193h-192zM152 451v192h192v-192h-192zM152 676v29q0 68 48 115.5t115 47.5h29v-192h-192zM377 0v193h192v-193h-192zM377 676v192h192v-192h-192zM602 0v193h193v-193h-193zM602 676v192h193v-192 h-193zM827 0v193h193v-29q0 -68 -48 -116t-116 -48h-29zM827 225v193h193v-193h-193zM827 451v192h193v-192h-193zM827 676v192h193v-192h-193zM827 901v193h193v-193h-193z" />
<glyph unicode="e" d="M152 164v29h192v-193h-29q-68 0 -115.5 48t-47.5 116zM152 225v193h192v-193h-192zM152 451v192h192v-192h-192zM152 676v192h192v-192h-192zM152 901v29q0 68 48 116t115 48h29v-193h-192zM377 0v193h192v-193h-192zM377 451v192h192v-192h-192zM377 901v193h192v-193 h-192zM602 0v193h193v-193h-193zM602 451v192h193v-192h-193zM602 901v193h193v-193h-193zM827 0v193h193v-193h-193zM827 451v192h193v-29q0 -68 -48 -115.5t-116 -47.5h-29zM827 676v192h193v-192h-193zM827 901v193h29q68 0 116 -48.5t48 -115.5v-29h-193z" />
<glyph unicode="f" d="M152 0v193h192v-193h-192zM152 225v193h192v-193h-192zM152 451v192h192v-192h-192zM152 676v192h192v-192h-192zM152 901v29q0 68 48 116t115 48h29v-193h-192zM377 225v193h192v-193h-192zM377 901v193h192v-193h-192zM602 225v193h193v-193h-193zM602 901v193h193 v-193h-193zM827 225v193h193v-193h-193zM827 676v192h193v-192h-193zM827 901v193h29q68 0 116 -48.5t48 -115.5v-29h-193z" />
<glyph unicode="g" d="M152 0v193h192v-193h-192zM152 614v29h192v-192h-29q-68 0 -115.5 48t-47.5 115zM152 676v192h192v-192h-192zM152 901v29q0 68 48 116t115 48h29v-193h-192zM377 0v193h192v-193h-192zM377 451v192h192v-192h-192zM377 901v193h192v-193h-192zM602 0v193h193v-193h-193z M602 451v192h193v-192h-193zM602 901v193h193v-193h-193zM827 0v193h193v-29q0 -68 -48 -116t-116 -48h-29zM827 225v193h193v-193h-193zM827 451v192h193v-192h-193zM827 676v192h193v-192h-193zM827 901v193h193v-193h-193z" />
<glyph unicode="h" d="M152 0v193h192v-193h-192zM152 225v193h192v-193h-192zM152 451v192h192v-192h-192zM152 676v192h192v-192h-192zM152 901v193h192v-193h-192zM377 676v192h192v-192h-192zM602 676v192h193v-192h-193zM827 0v193h193v-193h-193zM827 225v193h193v-193h-193zM827 451v192 h193v-192h-193zM827 676v192h29q68 0 116 -48t48 -115v-29h-193z" />
<glyph unicode="i" horiz-adv-x="344" d="M152 0v193h192v-193h-192zM152 225v193h192v-193h-192zM152 451v192h192v-192h-192zM152 676v192h28q68 0 116 -48t48 -115v-29h-192zM152 901v193h192v-193h-192z" />
<glyph unicode="j" d="M152 164v29h192v-193h-29q-68 0 -115.5 48t-47.5 116zM152 225v193h192v-193h-192zM152 451v192h192v-192h-192zM377 0v193h192v-193h-192zM377 901v193h192v-193h-192zM602 0v193h193v-193h-193zM602 901v193h193v-193h-193zM827 0v193h193v-29q0 -68 -48 -116t-116 -48 h-29zM827 225v193h193v-193h-193zM827 451v192h193v-192h-193zM827 676v192h193v-192h-193zM827 901v193h193v-193h-193z" />
<glyph unicode="k" d="M152 0v193h192v-193h-192zM152 225v193h192v-193h-192zM152 451v192h192v-192h-192zM152 676v192h192v-192h-192zM152 901v193h192v-193h-192zM377 225v193h192v-193h-192zM602 225v193h193v-193h-193zM827 0v193h193v-193h-193zM827 225v193h29q68 0 116 -48t48 -116 v-29h-193zM827 451v192h193v-29q0 -68 -48 -115.5t-116 -47.5h-29zM827 676v192h193v-192h-193zM827 901v193h193v-193h-193z" />
<glyph unicode="l" horiz-adv-x="794" d="M152 164v29h192v-193h-29q-68 0 -115.5 48t-47.5 116zM152 225v193h192v-193h-192zM152 451v192h192v-192h-192zM152 676v192h192v-192h-192zM152 901v193h192v-193h-192zM377 0v193h192v-193h-192zM602 0v193h193v-193h-193z" />
<glyph unicode="m" horiz-adv-x="1245" d="M152 0v193h192v-193h-192zM152 225v193h192v-193h-192zM152 451v192h192v-192h-192zM152 676v192h192v-192h-192zM152 901v193h192v-193h-192zM377 901v193h192v-193h-192zM602 0v193h193v-193h-193zM602 225v193h193v-193h-193zM602 451v192h193v-192h-193zM602 676v192 h193v-192h-193zM602 901v193h29q68 0 116 -48.5t48 -115.5v-29h-193zM827 901v29q0 68 48.5 116t115.5 48h29v-193h-193zM1053 0v193h192v-193h-192zM1053 225v193h192v-193h-192zM1053 451v192h192v-192h-192zM1053 676v192h192v-192h-192zM1053 901v193h28q68 0 116 -48.5 t48 -115.5v-29h-192z" />
<glyph unicode="n" d="M152 0v193h192v-193h-192zM152 225v193h192v-193h-192zM152 451v192h192v-192h-192zM152 676v192h192v-192h-192zM152 901v193h192v-193h-192zM377 901v193h192v-193h-192zM602 901v193h193v-193h-193zM827 0v193h193v-193h-193zM827 225v193h193v-193h-193zM827 451v192 h193v-192h-193zM827 676v192h193v-192h-193zM827 901v193h29q68 0 116 -48.5t48 -115.5v-29h-193z" />
<glyph unicode="o" d="M152 164v29h192v-193h-29q-68 0 -115.5 48t-47.5 116zM152 225v193h192v-193h-192zM152 451v192h192v-192h-192zM152 676v192h192v-192h-192zM152 901v29q0 68 48 116t115 48h29v-193h-192zM377 0v193h192v-193h-192zM377 901v193h192v-193h-192zM602 0v193h193v-193 h-193zM602 901v193h193v-193h-193zM827 0v193h193v-29q0 -68 -48 -116t-116 -48h-29zM827 225v193h193v-193h-193zM827 451v192h193v-192h-193zM827 676v192h193v-192h-193zM827 901v193h29q68 0 116 -48.5t48 -115.5v-29h-193z" />
<glyph unicode="p" d="M152 0v193h192v-193h-192zM152 225v193h192v-193h-192zM152 451v192h192v-192h-192zM152 676v192h192v-192h-192zM152 901v29q0 68 48 116t115 48h29v-193h-192zM377 225v193h192v-193h-192zM377 901v193h192v-193h-192zM602 225v193h193v-193h-193zM602 901v193h193 v-193h-193zM827 225v193h193v-29q0 -68 -48 -116t-116 -48h-29zM827 451v192h193v-192h-193zM827 676v192h193v-192h-193zM827 901v193h29q68 0 116 -48.5t48 -115.5v-29h-193z" />
<glyph unicode="q" d="M152 389q0 -68 48 -116t115 -48h29v193h-192v-29zM152 451h192v192h-192v-192zM152 676h192v192h-192v-192zM152 901h192v193h-29q-68 0 -115.5 -48.5t-47.5 -115.5v-29zM377 225h192v193h-192v-193zM377 901h192v193h-192v-193zM602 225h193v193h-193v-193zM602 901h193 v193h-193v-193zM827 0h193v193h-193v-193zM827 225h193v193h-193v-193zM827 451h193v192h-193v-192zM827 676h193v192h-193v-192zM827 901h193v193h-193v-193z" />
<glyph unicode="r" d="M152 0v193h192v-193h-192zM152 225v193h192v-193h-192zM152 451v192h192v-192h-192zM152 676v192h192v-192h-192zM152 901v193h192v-193h-192zM377 901v193h192v-193h-192zM602 901v193h193v-193h-193zM827 451v192h193v-192h-193zM827 676v192h193v-192h-193zM827 901 v193h29q68 0 116 -48.5t48 -115.5v-29h-193z" />
<glyph unicode="s" d="M152 0v193h192v-193h-192zM152 614v29h192v-192h-29q-68 0 -115.5 48t-47.5 115zM152 676v192h192v-192h-192zM152 901v29q0 68 48 116t115 48h29v-193h-192zM377 0v193h192v-193h-192zM377 451v192h192v-192h-192zM377 901v193h192v-193h-192zM602 0v193h193v-193h-193z M602 451v192h193v-192h-193zM602 901v193h193v-193h-193zM827 0v193h193v-29q0 -68 -48 -116t-116 -48h-29zM827 225v193h193v-193h-193zM827 451v192h29q68 0 116 -48t48 -116v-28h-193zM827 901v193h193v-193h-193z" />
<glyph unicode="t" d="M152 164v29h192v-193h-29q-68 0 -115.5 48t-47.5 116zM152 225v193h192v-193h-192zM152 451v192h192v-192h-192zM152 676v192h192v-192h-192zM152 901v193h192v-193h-192zM377 0v193h192v-193h-192zM377 676v192h192v-192h-192zM602 0v193h193v-193h-193zM602 676v192 h193v-192h-193zM827 0v193h193v-29q0 -68 -48 -116t-116 -48h-29zM827 225v193h193v-193h-193zM827 676v192h193v-192h-193z" />
<glyph unicode="u" d="M152 164v29h192v-193h-29q-68 0 -115.5 48t-47.5 116zM152 225v193h192v-193h-192zM152 451v192h192v-192h-192zM152 676v192h192v-192h-192zM152 901v193h192v-193h-192zM377 0v193h192v-193h-192zM602 0v193h193v-193h-193zM827 0v193h193v-193h-193zM827 225v193h193 v-193h-193zM827 451v192h193v-192h-193zM827 676v192h193v-192h-193zM827 901v193h193v-193h-193z" />
<glyph unicode="v" d="M152 164v29h192v-193h-29q-68 0 -115.5 48t-47.5 116zM152 225v193h192v-193h-192zM152 451v192h192v-192h-192zM152 676v192h192v-192h-192zM152 901v193h192v-193h-192zM377 0v193h192v-193h-192zM602 0v193h193v-193h-193zM827 0v193h193v-29q0 -68 -48 -116t-116 -48 h-29zM827 225v193h193v-193h-193zM827 451v192h193v-192h-193zM827 676v192h193v-192h-193zM827 901v193h193v-193h-193z" />
<glyph unicode="w" horiz-adv-x="1245" d="M152 164v29h192v-193h-29q-68 0 -115.5 48t-47.5 116zM152 225v193h192v-193h-192zM152 451v192h192v-192h-192zM152 676v192h192v-192h-192zM152 901v193h192v-193h-192zM377 0v193h192v-193h-192zM602 0v193h193v-29q0 -68 -48.5 -116t-115.5 -48h-29zM602 225v193h193 v-193h-193zM602 451v192h193v-192h-193zM602 676v192h193v-192h-193zM602 901v193h193v-193h-193zM827 164v29h193v-193h-29q-68 0 -116 48t-48 116zM1053 0v193h192v-29q0 -68 -48 -116t-116 -48h-28zM1053 225v193h192v-193h-192zM1053 451v192h192v-192h-192zM1053 676 v192h192v-192h-192zM1053 901v193h192v-193h-192z" />
<glyph unicode="x" d="M152 0v193h192v-193h-192zM152 225v29q0 68 48 116t115 48h29v-193h-192zM152 614v29h192v-192h-29q-68 0 -115.5 48t-47.5 115zM152 676v192h192v-192h-192zM152 901v193h192v-193h-192zM377 225v193h192v-193h-192zM602 225v193h193v-193h-193zM827 0v193h193v-193 h-193zM827 225v193h29q68 0 116 -48t48 -116v-29h-193zM827 451v192h193v-29q0 -68 -48 -115.5t-116 -47.5h-29zM827 676v192h193v-192h-193zM827 901v193h193v-193h-193z" />
<glyph unicode="y" d="M152 0v193h192v-193h-192zM152 614v29h192v-192h-29q-68 0 -115.5 48t-47.5 115zM152 676v192h192v-192h-192zM152 901v193h192v-193h-192zM377 0v193h192v-193h-192zM377 451v192h192v-192h-192zM602 0v193h193v-193h-193zM602 451v192h193v-192h-193zM827 0v193h193 v-29q0 -68 -48 -116t-116 -48h-29zM827 225v193h193v-193h-193zM827 451v192h193v-192h-193zM827 676v192h193v-192h-193zM827 901v193h193v-193h-193z" />
<glyph unicode="z" d="M152 164v29h192v-193h-29q-68 0 -115.5 48t-47.5 116zM152 225v193h192v-193h-192zM152 451v28q0 68 48 116t115 48h29v-192h-192zM152 901v193h192v-193h-192zM377 0v193h192v-193h-192zM377 451v192h192v-192h-192zM377 901v193h192v-193h-192zM602 0v193h193v-193 h-193zM602 451v192h193v-192h-193zM602 901v193h193v-193h-193zM827 0v193h193v-193h-193zM827 451v192h193v-29q0 -68 -48 -115.5t-116 -47.5h-29zM827 676v192h193v-192h-193zM827 901v193h29q68 0 116 -48.5t48 -115.5v-29h-193z" />
<glyph unicode="{" horiz-adv-x="569" d="M152 164v29h192v-193h-29q-68 0 -115.5 48t-47.5 116zM152 225v193h192v-193h-192zM152 451v192h192v-192h-192zM152 676v192h192v-192h-192zM152 901v29q0 68 48 116t115 48h29v-193h-192zM377 0v193h192v-193h-192zM377 901v193h192v-193h-192z" />
<glyph unicode="|" horiz-adv-x="344" d="M152 0v193h192v-193h-192zM152 -33h192v-192h-192v192zM152 225v193h192v-193h-192zM152 451v192h192v-192h-192zM152 676v192h192v-192h-192zM152 901v193h192v-193h-192zM152 1126v193h192v-193h-192z" />
<glyph unicode="}" horiz-adv-x="569" d="M152 0v193h192v-193h-192zM152 901v193h192v-193h-192zM377 0v193h192v-29q0 -68 -48 -116t-115 -48h-29zM377 225v193h192v-193h-192zM377 451v192h192v-192h-192zM377 676v192h192v-192h-192zM377 901v193h29q68 0 115.5 -48.5t47.5 -115.5v-29h-192z" />
<glyph unicode="~" horiz-adv-x="794" d="M152 676v192h192v-192h-192zM377 676v192h192v-28q0 -68 -48 -116t-115 -48h-29zM377 901v29q0 68 48 116t116 48h28v-193h-192zM602 901v193h193v-193h-193z" />
<glyph unicode="&#xa1;" horiz-adv-x="344" d="M152 0v193h192v-193h-192zM152 225v193h192v-193h-192zM152 451v192h192v-192h-192zM152 676v192h28q68 0 116 -48t48 -115v-29h-192zM152 901v193h192v-193h-192z" />
<glyph unicode="&#xa2;" d="M152 389v29h192v-193h-29q-68 0 -115.5 48.5t-47.5 115.5zM152 451v192h192v-192h-192zM152 676v29q0 68 48 115.5t115 47.5h29v-192h-192zM377 225v193h192v-193h-192zM377 676v192h192v-192h-192zM602 0v193h193v-193h-193zM602 225v193h193v-193h-193zM602 676v192 h193v-192h-193zM602 901v193h193v-193h-193zM827 225v193h193v-193h-193zM827 676v192h193v-192h-193z" />
<glyph unicode="&#xa3;" d="M152 164v29h192v-193h-29q-68 0 -115.5 48t-47.5 116zM152 225v193h192v-193h-192zM152 451v192h192v-192h-192zM152 676v192h192v-192h-192zM152 901v29q0 68 48 116t115 48h29v-193h-192zM377 0v193h192v-193h-192zM377 451v192h192v-192h-192zM377 901v193h192v-193 h-192zM602 0v193h193v-193h-193zM602 901v193h193v-193h-193zM827 0v193h193v-29q0 -68 -48 -116t-116 -48h-29zM827 225v193h193v-193h-193z" />
<glyph unicode="&#xa4;" d="M152 164q0 -68 48 -116t115 -48h29v193h-192v-29zM152 225v193h192v-193h-192zM152 451v192h192v-192h-192zM152 676v192h192v-192h-192zM152 901h192v193h-29q-68 0 -115.5 -48.5t-47.5 -115.5v-29zM377 0v193h192v-193h-192zM377 225v193h192v-193h-192zM377 451v192 h192v-192h-192zM377 676v192h192v-192h-192zM377 901v193h192v-193h-192zM602 0v193h193v-193h-193zM602 225v193h193v-193h-193zM602 451v192h193v-192h-193zM602 676v192h193v-192h-193zM602 901v193h193v-193h-193zM827 0h29q68 0 116 48t48 116v29h-193v-193zM827 225 v193h193v-193h-193zM827 451v192h193v-192h-193zM827 676v192h193v-192h-193zM827 901h193v29q0 68 -48 116t-116 48h-29v-193z" />
<glyph unicode="&#xa5;" d="M152 164q0 -68 48 -116t115 -48h29v193h-192v-29zM152 225v193h192v-193h-192zM152 451v192h192v-192h-192zM152 676v192h192v-192h-192zM152 901h192v193h-29q-68 0 -115.5 -48.5t-47.5 -115.5v-29zM377 0v193h192v-193h-192zM377 225v193h192v-193h-192zM377 451v192 h192v-192h-192zM377 676v192h192v-192h-192zM377 901v193h192v-193h-192zM602 0v193h193v-193h-193zM602 225v193h193v-193h-193zM602 451v192h193v-192h-193zM602 676v192h193v-192h-193zM602 901v193h193v-193h-193zM827 0h29q68 0 116 48t48 116v29h-193v-193zM827 225 v193h193v-193h-193zM827 451v192h193v-192h-193zM827 676v192h193v-192h-193zM827 901h193v29q0 68 -48 116t-116 48h-29v-193z" />
<glyph unicode="&#xa7;" d="M152 0v193h192v-193h-192zM152 614v29h192v-192h-29q-68 0 -115.5 48t-47.5 115zM152 840v28h192v-192h-29q-68 0 -115.5 48t-47.5 116zM152 901v29q0 68 48 116t115 48h29v-193h-192zM377 0v193h192v-193h-192zM377 451v192h192v-192h-192zM377 676v192h192v-192h-192z M377 901v193h192v-193h-192zM602 0v193h193v-193h-193zM602 451v192h193v-192h-193zM602 676v192h193v-192h-193zM602 901v193h193v-193h-193zM827 0v193h193v-29q0 -68 -48 -116t-116 -48h-29zM827 225v193h193v-193h-193zM827 451v192h29q68 0 116 -48t48 -116v-28h-193z M827 676v192h29q68 0 116 -48t48 -115v-29h-193zM827 901v193h193v-193h-193z" />
<glyph unicode="&#xa8;" d="M152 1352v192h192v-192h-192zM602 1352v192h193v-192h-193z" />
<glyph unicode="&#xa9;" horiz-adv-x="1245" d="M152 164v29h192v-193h-29q-68 0 -115.5 48t-47.5 116zM152 225v193h192v-193h-192zM152 451v192h192v-192h-192zM152 676v192h192v-192h-192zM152 901v29q0 68 48 116t115 48h29v-193h-192zM377 0v193h192v-193h-192zM377 901v193h192v-193h-192zM492 512v29h192v-193 h-29q-68 0 -115.5 48t-47.5 116zM492 573v29q0 68 48 116t115 48h29v-193h-192zM602 0v193h193v-193h-193zM602 901v193h193v-193h-193zM717 348v193h192v-193h-192zM717 573v193h192v-193h-192zM827 0v193h193v-193h-193zM827 901v193h193v-193h-193zM1053 0v193h192v-29 q0 -68 -48 -116t-116 -48h-28zM1053 225v193h192v-193h-192zM1053 451v192h192v-192h-192zM1053 676v192h192v-192h-192zM1053 901v193h28q68 0 116 -48.5t48 -115.5v-29h-192z" />
<glyph unicode="&#xaa;" d="M152 164q0 -68 48 -116t115 -48h29v193h-192v-29zM152 225v193h192v-193h-192zM152 451v192h192v-192h-192zM152 676v192h192v-192h-192zM152 901h192v193h-29q-68 0 -115.5 -48.5t-47.5 -115.5v-29zM377 0v193h192v-193h-192zM377 225v193h192v-193h-192zM377 451v192 h192v-192h-192zM377 676v192h192v-192h-192zM377 901v193h192v-193h-192zM602 0v193h193v-193h-193zM602 225v193h193v-193h-193zM602 451v192h193v-192h-193zM602 676v192h193v-192h-193zM602 901v193h193v-193h-193zM827 0h29q68 0 116 48t48 116v29h-193v-193zM827 225 v193h193v-193h-193zM827 451v192h193v-192h-193zM827 676v192h193v-192h-193zM827 901h193v29q0 68 -48 116t-116 48h-29v-193z" />
<glyph unicode="&#xab;" d="M152 164q0 -68 48 -116t115 -48h29v193h-192v-29zM152 225v193h192v-193h-192zM152 451v192h192v-192h-192zM152 676v192h192v-192h-192zM152 901h192v193h-29q-68 0 -115.5 -48.5t-47.5 -115.5v-29zM377 0v193h192v-193h-192zM377 225v193h192v-193h-192zM377 451v192 h192v-192h-192zM377 676v192h192v-192h-192zM377 901v193h192v-193h-192zM602 0v193h193v-193h-193zM602 225v193h193v-193h-193zM602 451v192h193v-192h-193zM602 676v192h193v-192h-193zM602 901v193h193v-193h-193zM827 0h29q68 0 116 48t48 116v29h-193v-193zM827 225 v193h193v-193h-193zM827 451v192h193v-192h-193zM827 676v192h193v-192h-193zM827 901h193v29q0 68 -48 116t-116 48h-29v-193z" />
<glyph unicode="&#xac;" d="M152 164q0 -68 48 -116t115 -48h29v193h-192v-29zM152 225v193h192v-193h-192zM152 451v192h192v-192h-192zM152 676v192h192v-192h-192zM152 901h192v193h-29q-68 0 -115.5 -48.5t-47.5 -115.5v-29zM377 0v193h192v-193h-192zM377 225v193h192v-193h-192zM377 451v192 h192v-192h-192zM377 676v192h192v-192h-192zM377 901v193h192v-193h-192zM602 0v193h193v-193h-193zM602 225v193h193v-193h-193zM602 451v192h193v-192h-193zM602 676v192h193v-192h-193zM602 901v193h193v-193h-193zM827 0h29q68 0 116 48t48 116v29h-193v-193zM827 225 v193h193v-193h-193zM827 451v192h193v-192h-193zM827 676v192h193v-192h-193zM827 901h193v29q0 68 -48 116t-116 48h-29v-193z" />
<glyph unicode="&#xad;" horiz-adv-x="794" d="M152 451v192h192v-192h-192zM377 451v192h192v-192h-192zM602 451v192h193v-192h-193z" />
<glyph unicode="&#xae;" horiz-adv-x="1245" d="M152 164v29h192v-193h-29q-68 0 -115.5 48t-47.5 116zM152 225v193h192v-193h-192zM152 451v192h192v-192h-192zM152 676v192h192v-192h-192zM152 901v29q0 68 48 116t115 48h29v-193h-192zM377 0v193h192v-193h-192zM377 901v193h192v-193h-192zM500 348v193h192v-193 h-192zM500 573v29q0 68 48 116t116 48h28v-193h-192zM602 0v193h193v-193h-193zM602 901v193h193v-193h-193zM725 573v193h193v-193h-193zM827 0v193h193v-193h-193zM827 901v193h193v-193h-193zM1053 0v193h192v-29q0 -68 -48 -116t-116 -48h-28zM1053 225v193h192v-193 h-192zM1053 451v192h192v-192h-192zM1053 676v192h192v-192h-192zM1053 901v193h28q68 0 116 -48.5t48 -115.5v-29h-192z" />
<glyph unicode="&#xaf;" d="M152 164q0 -68 48 -116t115 -48h29v193h-192v-29zM152 225v193h192v-193h-192zM152 451v192h192v-192h-192zM152 676v192h192v-192h-192zM152 901h192v193h-29q-68 0 -115.5 -48.5t-47.5 -115.5v-29zM377 0v193h192v-193h-192zM377 225v193h192v-193h-192zM377 451v192 h192v-192h-192zM377 676v192h192v-192h-192zM377 901v193h192v-193h-192zM602 0v193h193v-193h-193zM602 225v193h193v-193h-193zM602 451v192h193v-192h-193zM602 676v192h193v-192h-193zM602 901v193h193v-193h-193zM827 0h29q68 0 116 48t48 116v29h-193v-193zM827 225 v193h193v-193h-193zM827 451v192h193v-192h-193zM827 676v192h193v-192h-193zM827 901h193v29q0 68 -48 116t-116 48h-29v-193z" />
<glyph unicode="&#xb0;" d="M152 164q0 -68 48 -116t115 -48h29v193h-192v-29zM152 225v193h192v-193h-192zM152 451v192h192v-192h-192zM152 676v192h192v-192h-192zM152 901h192v193h-29q-68 0 -115.5 -48.5t-47.5 -115.5v-29zM377 0v193h192v-193h-192zM377 225v193h192v-193h-192zM377 451v192 h192v-192h-192zM377 676v192h192v-192h-192zM377 901v193h192v-193h-192zM602 0v193h193v-193h-193zM602 225v193h193v-193h-193zM602 451v192h193v-192h-193zM602 676v192h193v-192h-193zM602 901v193h193v-193h-193zM827 0h29q68 0 116 48t48 116v29h-193v-193zM827 225 v193h193v-193h-193zM827 451v192h193v-192h-193zM827 676v192h193v-192h-193zM827 901h193v29q0 68 -48 116t-116 48h-29v-193z" />
<glyph unicode="&#xb1;" d="M152 164q0 -68 48 -116t115 -48h29v193h-192v-29zM152 225v193h192v-193h-192zM152 451v192h192v-192h-192zM152 676v192h192v-192h-192zM152 901h192v193h-29q-68 0 -115.5 -48.5t-47.5 -115.5v-29zM377 0v193h192v-193h-192zM377 225v193h192v-193h-192zM377 451v192 h192v-192h-192zM377 676v192h192v-192h-192zM377 901v193h192v-193h-192zM602 0v193h193v-193h-193zM602 225v193h193v-193h-193zM602 451v192h193v-192h-193zM602 676v192h193v-192h-193zM602 901v193h193v-193h-193zM827 0h29q68 0 116 48t48 116v29h-193v-193zM827 225 v193h193v-193h-193zM827 451v192h193v-192h-193zM827 676v192h193v-192h-193zM827 901h193v29q0 68 -48 116t-116 48h-29v-193z" />
<glyph unicode="&#xb4;" d="M152 1352v192h192v-192h-192zM377 1352v192h192v-192h-192zM377 1577v192h29q68 0 115.5 -48t47.5 -115v-29h-192z" />
<glyph unicode="&#xb6;" horiz-adv-x="1245" d="M152 614v29h192v-192h-29q-68 0 -115.5 48t-47.5 115zM152 676v192h192v-192h-192zM152 901v29q0 68 48 116t115 48h29v-193h-192zM377 0v193h192v-193h-192zM377 225v193h192v-193h-192zM377 451v192h192v-192h-192zM377 676v192h192v-192h-192zM377 901v193h192v-193 h-192zM602 901v193h193v-193h-193zM827 0v193h193v-193h-193zM827 225v193h193v-193h-193zM827 451v192h193v-192h-193zM827 676v192h193v-192h-193zM827 901v193h193v-193h-193zM1053 901v193h192v-193h-192z" />
<glyph unicode="&#xb7;" d="M152 164q0 -68 48 -116t115 -48h29v193h-192v-29zM152 225v193h192v-193h-192zM152 451v192h192v-192h-192zM152 676v192h192v-192h-192zM152 901h192v193h-29q-68 0 -115.5 -48.5t-47.5 -115.5v-29zM377 0v193h192v-193h-192zM377 225v193h192v-193h-192zM377 451v192 h192v-192h-192zM377 676v192h192v-192h-192zM377 901v193h192v-193h-192zM602 0v193h193v-193h-193zM602 225v193h193v-193h-193zM602 451v192h193v-192h-193zM602 676v192h193v-192h-193zM602 901v193h193v-193h-193zM827 0h29q68 0 116 48t48 116v29h-193v-193zM827 225 v193h193v-193h-193zM827 451v192h193v-192h-193zM827 676v192h193v-192h-193zM827 901h193v29q0 68 -48 116t-116 48h-29v-193z" />
<glyph unicode="&#xb8;" d="M152 164q0 -68 48 -116t115 -48h29v193h-192v-29zM152 225v193h192v-193h-192zM152 451v192h192v-192h-192zM152 676v192h192v-192h-192zM152 901h192v193h-29q-68 0 -115.5 -48.5t-47.5 -115.5v-29zM377 0v193h192v-193h-192zM377 225v193h192v-193h-192zM377 451v192 h192v-192h-192zM377 676v192h192v-192h-192zM377 901v193h192v-193h-192zM602 0v193h193v-193h-193zM602 225v193h193v-193h-193zM602 451v192h193v-192h-193zM602 676v192h193v-192h-193zM602 901v193h193v-193h-193zM827 0h29q68 0 116 48t48 116v29h-193v-193zM827 225 v193h193v-193h-193zM827 451v192h193v-192h-193zM827 676v192h193v-192h-193zM827 901h193v29q0 68 -48 116t-116 48h-29v-193z" />
<glyph unicode="&#xba;" d="M152 164q0 -68 48 -116t115 -48h29v193h-192v-29zM152 225v193h192v-193h-192zM152 451v192h192v-192h-192zM152 676v192h192v-192h-192zM152 901h192v193h-29q-68 0 -115.5 -48.5t-47.5 -115.5v-29zM377 0v193h192v-193h-192zM377 225v193h192v-193h-192zM377 451v192 h192v-192h-192zM377 676v192h192v-192h-192zM377 901v193h192v-193h-192zM602 0v193h193v-193h-193zM602 225v193h193v-193h-193zM602 451v192h193v-192h-193zM602 676v192h193v-192h-193zM602 901v193h193v-193h-193zM827 0h29q68 0 116 48t48 116v29h-193v-193zM827 225 v193h193v-193h-193zM827 451v192h193v-192h-193zM827 676v192h193v-192h-193zM827 901h193v29q0 68 -48 116t-116 48h-29v-193z" />
<glyph unicode="&#xbb;" d="M152 164q0 -68 48 -116t115 -48h29v193h-192v-29zM152 225v193h192v-193h-192zM152 451v192h192v-192h-192zM152 676v192h192v-192h-192zM152 901h192v193h-29q-68 0 -115.5 -48.5t-47.5 -115.5v-29zM377 0v193h192v-193h-192zM377 225v193h192v-193h-192zM377 451v192 h192v-192h-192zM377 676v192h192v-192h-192zM377 901v193h192v-193h-192zM602 0v193h193v-193h-193zM602 225v193h193v-193h-193zM602 451v192h193v-192h-193zM602 676v192h193v-192h-193zM602 901v193h193v-193h-193zM827 0h29q68 0 116 48t48 116v29h-193v-193zM827 225 v193h193v-193h-193zM827 451v192h193v-192h-193zM827 676v192h193v-192h-193zM827 901h193v29q0 68 -48 116t-116 48h-29v-193z" />
<glyph unicode="&#xbf;" d="M152 164v29h192v-193h-29q-68 0 -115.5 48t-47.5 116zM152 225v193h192v-193h-192zM152 451v28q0 68 48 116t115 48h29v-192h-192zM377 0v193h192v-193h-192zM377 451v192h192v-192h-192zM602 0v193h193v-193h-193zM602 451v192h193v-192h-193zM827 0v193h193v-193h-193z M827 451v192h193v-29q0 -68 -48 -115.5t-116 -47.5h-29zM827 676v192h29q68 0 116 -48t48 -115v-29h-193zM827 901v193h193v-193h-193z" />
<glyph unicode="&#xc0;" d="M152 0v193h192v-193h-192zM152 225v193h192v-193h-192zM152 451v192h192v-192h-192zM152 676v192h192v-192h-192zM152 901v29q0 68 48 116t115 48h29v-193h-192zM152 1352v192h192v-192h-192zM152 1577v29q0 68 48 115.5t115 47.5h29v-192h-192zM377 225v193h192v-193 h-192zM377 901v193h192v-193h-192zM377 1352v192h192v-192h-192zM602 225v193h193v-193h-193zM602 901v193h193v-193h-193zM827 0v193h193v-193h-193zM827 225v193h193v-193h-193zM827 451v192h193v-192h-193zM827 676v192h193v-192h-193zM827 901v193h29q68 0 116 -48.5 t48 -115.5v-29h-193z" />
<glyph unicode="&#xc1;" d="M152 0v193h192v-193h-192zM152 225v193h192v-193h-192zM152 451v192h192v-192h-192zM152 676v192h192v-192h-192zM152 901v29q0 68 48 116t115 48h29v-193h-192zM152 1352v192h192v-192h-192zM377 225v193h192v-193h-192zM377 901v193h192v-193h-192zM377 1352v192h192 v-192h-192zM377 1577v192h29q68 0 115.5 -48t47.5 -115v-29h-192zM602 225v193h193v-193h-193zM602 901v193h193v-193h-193zM827 0v193h193v-193h-193zM827 225v193h193v-193h-193zM827 451v192h193v-192h-193zM827 676v192h193v-192h-193zM827 901v193h29q68 0 116 -48.5 t48 -115.5v-29h-193z" />
<glyph unicode="&#xc2;" d="M152 0v193h192v-193h-192zM152 225v193h192v-193h-192zM152 451v192h192v-192h-192zM152 676v192h192v-192h-192zM152 901v29q0 68 48 116t115 48h29v-193h-192zM377 225v193h192v-193h-192zM377 901v193h192v-193h-192zM377 1352v28q0 68 48 116t116 48h28v-192h-192z M602 225v193h193v-193h-193zM602 901v193h193v-193h-193zM602 1352v192h29q68 0 116 -48t48 -116v-28h-193zM827 0v193h193v-193h-193zM827 225v193h193v-193h-193zM827 451v192h193v-192h-193zM827 676v192h193v-192h-193zM827 901v193h29q68 0 116 -48.5t48 -115.5v-29 h-193z" />
<glyph unicode="&#xc3;" d="M152 0v193h192v-193h-192zM152 225v193h192v-193h-192zM152 451v192h192v-192h-192zM152 676v192h192v-192h-192zM152 901v29q0 68 48 116t115 48h29v-193h-192zM152 1352v192h192v-192h-192zM377 225v193h192v-193h-192zM377 901v193h192v-193h-192zM377 1352v192h192 v-28q0 -68 -48 -116t-115 -48h-29zM377 1577v29q0 68 48 116t116 48h28v-193h-192zM602 225v193h193v-193h-193zM602 901v193h193v-193h-193zM602 1577v193h193v-193h-193zM827 0v193h193v-193h-193zM827 225v193h193v-193h-193zM827 451v192h193v-192h-193zM827 676v192 h193v-192h-193zM827 901v193h29q68 0 116 -48.5t48 -115.5v-29h-193z" />
<glyph unicode="&#xc4;" d="M152 0v193h192v-193h-192zM152 225v193h192v-193h-192zM152 451v192h192v-192h-192zM152 676v192h192v-192h-192zM152 901v29q0 68 48 116t115 48h29v-193h-192zM152 1352v192h192v-192h-192zM377 225v193h192v-193h-192zM377 901v193h192v-193h-192zM602 225v193h193 v-193h-193zM602 901v193h193v-193h-193zM602 1352v192h193v-192h-193zM827 0v193h193v-193h-193zM827 225v193h193v-193h-193zM827 451v192h193v-192h-193zM827 676v192h193v-192h-193zM827 901v193h29q68 0 116 -48.5t48 -115.5v-29h-193z" />
<glyph unicode="&#xc5;" d="M152 0v193h192v-193h-192zM152 225v193h192v-193h-192zM152 451v192h192v-192h-192zM152 676v192h192v-192h-192zM152 901v29q0 68 48 116t115 48h29v-193h-192zM377 225v193h192v-193h-192zM377 901v193h192v-193h-192zM377 1288v29h192v-193h-28q-68 0 -116 48.5 t-48 115.5zM377 1350v28q0 68 48 116t116 48h28v-192h-192zM602 225v193h193v-193h-193zM602 901v193h193v-193h-193zM602 1124v193h193v-29q0 -68 -48.5 -116t-115.5 -48h-29zM602 1350v192h29q68 0 116 -48t48 -116v-28h-193zM827 0v193h193v-193h-193zM827 225v193h193 v-193h-193zM827 451v192h193v-192h-193zM827 676v192h193v-192h-193zM827 901v193h29q68 0 116 -48.5t48 -115.5v-29h-193z" />
<glyph unicode="&#xc6;" horiz-adv-x="1693" d="M152 0v193h192v-193h-192zM152 225v193h192v-193h-192zM152 451v192h192v-192h-192zM152 676v192h192v-192h-192zM152 901v29q0 68 48 116t115 48h29v-193h-192zM377 225v193h192v-193h-192zM377 901v193h192v-193h-192zM602 225v193h193v-193h-193zM602 901v193h193 v-193h-193zM827 164v29h193v-193h-29q-68 0 -116 48t-48 116zM827 225v193h193v-193h-193zM827 451v192h193v-192h-193zM827 676v192h193v-192h-193zM827 901v193h29q35 0 68 -15q33 14 67 15h29v-193h-193zM1053 0v193h192v-193h-192zM1053 451v192h192v-192h-192z M1053 901v193h192v-193h-192zM1278 0v193h192v-193h-192zM1278 451v192h192v-192h-192zM1278 901v193h192v-193h-192zM1503 0v193h193v-193h-193zM1503 901v193h193v-193h-193z" />
<glyph unicode="&#xc7;" d="M152 164v29h192v-193h-29q-68 0 -115.5 48t-47.5 116zM152 225v193h192v-193h-192zM152 451v192h192v-192h-192zM152 676v192h192v-192h-192zM152 901v29q0 68 48 116t115 48h29v-193h-192zM377 0v193h192v-193h-192zM377 -258h192v-193h-192v193zM377 901v193h192v-193 h-192zM602 0v193h193v-193h-193zM602 -33h193v-192h-193v192zM602 -258h193v-29q0 -68 -48.5 -116t-115.5 -48h-29v193zM602 901v193h193v-193h-193zM827 0v193h193v-29q0 -68 -48 -116t-116 -48h-29zM827 225v193h193v-193h-193zM827 676v192h193v-192h-193zM827 901v193 h29q68 0 116 -48.5t48 -115.5v-29h-193z" />
<glyph unicode="&#xc8;" d="M152 164v29h192v-193h-29q-68 0 -115.5 48t-47.5 116zM152 225v193h192v-193h-192zM152 451v192h192v-192h-192zM152 676v192h192v-192h-192zM152 901v29q0 68 48 116t115 48h29v-193h-192zM152 1352v192h192v-192h-192zM152 1577v29q0 68 48 115.5t115 47.5h29v-192 h-192zM377 0v193h192v-193h-192zM377 451v192h192v-192h-192zM377 901v193h192v-193h-192zM377 1352v192h192v-192h-192zM602 0v193h193v-193h-193zM602 451v192h193v-192h-193zM602 901v193h193v-193h-193zM827 0v193h193v-193h-193zM827 901v193h193v-193h-193z" />
<glyph unicode="&#xc9;" d="M152 164v29h192v-193h-29q-68 0 -115.5 48t-47.5 116zM152 225v193h192v-193h-192zM152 451v192h192v-192h-192zM152 676v192h192v-192h-192zM152 901v29q0 68 48 116t115 48h29v-193h-192zM152 1352v192h192v-192h-192zM377 0v193h192v-193h-192zM377 451v192h192v-192 h-192zM377 901v193h192v-193h-192zM377 1352v192h192v-192h-192zM377 1577v192h29q68 0 115.5 -48t47.5 -115v-29h-192zM602 0v193h193v-193h-193zM602 451v192h193v-192h-193zM602 901v193h193v-193h-193zM827 0v193h193v-193h-193zM827 901v193h193v-193h-193z" />
<glyph unicode="&#xca;" d="M152 164v29h192v-193h-29q-68 0 -115.5 48t-47.5 116zM152 225v193h192v-193h-192zM152 451v192h192v-192h-192zM152 676v192h192v-192h-192zM152 901v29q0 68 48 116t115 48h29v-193h-192zM377 0v193h192v-193h-192zM377 451v192h192v-192h-192zM377 901v193h192v-193 h-192zM377 1352v28q0 68 48 116t116 48h28v-192h-192zM602 0v193h193v-193h-193zM602 451v192h193v-192h-193zM602 901v193h193v-193h-193zM602 1352v192h29q68 0 116 -48t48 -116v-28h-193zM827 0v193h193v-193h-193zM827 901v193h193v-193h-193z" />
<glyph unicode="&#xcb;" d="M152 164v29h192v-193h-29q-68 0 -115.5 48t-47.5 116zM152 225v193h192v-193h-192zM152 451v192h192v-192h-192zM152 676v192h192v-192h-192zM152 901v29q0 68 48 116t115 48h29v-193h-192zM152 1352v192h192v-192h-192zM377 0v193h192v-193h-192zM377 451v192h192v-192 h-192zM377 901v193h192v-193h-192zM602 0v193h193v-193h-193zM602 451v192h193v-192h-193zM602 901v193h193v-193h-193zM602 1352v192h193v-192h-193zM827 0v193h193v-193h-193zM827 901v193h193v-193h-193z" />
<glyph unicode="&#xcc;" horiz-adv-x="344" d="M-73 1352v192h192v-192h-192zM-73 1577v29q0 68 48 115.5t115 47.5h29v-192h-192zM152 0v193h192v-193h-192zM152 225v193h192v-193h-192zM152 451v192h192v-192h-192zM152 676v192h192v-192h-192zM152 901v193h192v-193h-192zM152 1352v192h192v-192h-192z" />
<glyph unicode="&#xcd;" horiz-adv-x="344" d="M152 0v193h192v-193h-192zM152 225v193h192v-193h-192zM152 451v192h192v-192h-192zM152 676v192h192v-192h-192zM152 901v193h192v-193h-192zM152 1352v192h192v-192h-192zM377 1352v192h192v-192h-192zM377 1577v192h29q68 0 115.5 -48t47.5 -115v-29h-192z" />
<glyph unicode="&#xce;" horiz-adv-x="344" d="M152 0v193h192v-193h-192zM152 225v193h192v-193h-192zM152 451v192h192v-192h-192zM152 676v192h192v-192h-192zM152 901v193h192v-193h-192zM152 1352v28q0 68 48 116t116 48h28v-192h-192zM377 1352v192h29q68 0 116 -48t48 -116v-28h-193z" />
<glyph unicode="&#xcf;" horiz-adv-x="344" d="M-73 1352v192h192v-192h-192zM152 0v193h192v-193h-192zM152 225v193h192v-193h-192zM152 451v192h192v-192h-192zM152 676v192h192v-192h-192zM152 901v193h192v-193h-192zM377 1352v192h193v-192h-193z" />
<glyph unicode="&#xd0;" horiz-adv-x="1245" d="M152 451v192h192v-192h-192zM377 164v29h192v-193h-28q-68 0 -116 48t-48 116zM377 225v193h192v-193h-192zM377 451v192h192v-192h-192zM377 676v192h192v-192h-192zM377 901v193h192v-193h-192zM602 0v193h193v-193h-193zM602 451v192h193v-192h-193zM602 901v193h193 v-193h-193zM827 0v193h193v-193h-193zM827 901v193h193v-193h-193zM1053 0v193h192v-29q0 -68 -48 -116t-116 -48h-28zM1053 225v193h192v-193h-192zM1053 451v192h192v-192h-192zM1053 676v192h192v-192h-192zM1053 901v193h28q68 0 116 -48.5t48 -115.5v-29h-192z" />
<glyph unicode="&#xd1;" d="M152 0v193h192v-193h-192zM152 225v193h192v-193h-192zM152 451v192h192v-192h-192zM152 676v192h192v-192h-192zM152 901v193h192v-193h-192zM152 1352v192h192v-192h-192zM377 676v192h192v-192h-192zM377 901v193h29q68 0 115.5 -48.5t47.5 -115.5v-29h-192zM377 1352 v192h192v-28q0 -68 -48 -116t-115 -48h-29zM377 1577v29q0 68 48 116t116 48h28v-193h-192zM602 389v29h193v-193h-29q-68 0 -116 48.5t-48 115.5zM602 451v192h193v-192h-193zM602 1577v193h193v-193h-193zM827 0v193h193v-193h-193zM827 225v193h193v-193h-193zM827 451 v192h193v-192h-193zM827 676v192h193v-192h-193zM827 901v193h193v-193h-193z" />
<glyph unicode="&#xd2;" d="M152 164v29h192v-193h-29q-68 0 -115.5 48t-47.5 116zM152 225v193h192v-193h-192zM152 451v192h192v-192h-192zM152 676v192h192v-192h-192zM152 901v29q0 68 48 116t115 48h29v-193h-192zM152 1352v192h192v-192h-192zM152 1577v29q0 68 48 115.5t115 47.5h29v-192 h-192zM377 0v193h192v-193h-192zM377 901v193h192v-193h-192zM377 1352v192h192v-192h-192zM602 0v193h193v-193h-193zM602 901v193h193v-193h-193zM827 0v193h193v-29q0 -68 -48 -116t-116 -48h-29zM827 225v193h193v-193h-193zM827 451v192h193v-192h-193zM827 676v192 h193v-192h-193zM827 901v193h29q68 0 116 -48.5t48 -115.5v-29h-193z" />
<glyph unicode="&#xd3;" d="M152 164v29h192v-193h-29q-68 0 -115.5 48t-47.5 116zM152 225v193h192v-193h-192zM152 451v192h192v-192h-192zM152 676v192h192v-192h-192zM152 901v29q0 68 48 116t115 48h29v-193h-192zM152 1352v192h192v-192h-192zM377 0v193h192v-193h-192zM377 901v193h192v-193 h-192zM377 1352v192h192v-192h-192zM377 1577v192h29q68 0 115.5 -48t47.5 -115v-29h-192zM602 0v193h193v-193h-193zM602 901v193h193v-193h-193zM827 0v193h193v-29q0 -68 -48 -116t-116 -48h-29zM827 225v193h193v-193h-193zM827 451v192h193v-192h-193zM827 676v192h193 v-192h-193zM827 901v193h29q68 0 116 -48.5t48 -115.5v-29h-193z" />
<glyph unicode="&#xd4;" d="M152 164v29h192v-193h-29q-68 0 -115.5 48t-47.5 116zM152 225v193h192v-193h-192zM152 451v192h192v-192h-192zM152 676v192h192v-192h-192zM152 901v29q0 68 48 116t115 48h29v-193h-192zM377 0v193h192v-193h-192zM377 901v193h192v-193h-192zM377 1352v28 q0 68 48 116t116 48h28v-192h-192zM602 0v193h193v-193h-193zM602 901v193h193v-193h-193zM602 1352v192h29q68 0 116 -48t48 -116v-28h-193zM827 0v193h193v-29q0 -68 -48 -116t-116 -48h-29zM827 225v193h193v-193h-193zM827 451v192h193v-192h-193zM827 676v192h193v-192 h-193zM827 901v193h29q68 0 116 -48.5t48 -115.5v-29h-193z" />
<glyph unicode="&#xd5;" d="M152 164v29h192v-193h-29q-68 0 -115.5 48t-47.5 116zM152 225v193h192v-193h-192zM152 451v192h192v-192h-192zM152 676v192h192v-192h-192zM152 901v29q0 68 48 116t115 48h29v-193h-192zM152 1352v192h192v-192h-192zM377 0v193h192v-193h-192zM377 901v193h192v-193 h-192zM377 1352v192h192v-28q0 -68 -48 -116t-115 -48h-29zM377 1577v29q0 68 48 116t116 48h28v-193h-192zM602 0v193h193v-193h-193zM602 901v193h193v-193h-193zM602 1577v193h193v-193h-193zM827 0v193h193v-29q0 -68 -48 -116t-116 -48h-29zM827 225v193h193v-193h-193 zM827 451v192h193v-192h-193zM827 676v192h193v-192h-193zM827 901v193h29q68 0 116 -48.5t48 -115.5v-29h-193z" />
<glyph unicode="&#xd6;" d="M152 164v29h192v-193h-29q-68 0 -115.5 48t-47.5 116zM152 225v193h192v-193h-192zM152 451v192h192v-192h-192zM152 676v192h192v-192h-192zM152 901v29q0 68 48 116t115 48h29v-193h-192zM152 1352v192h192v-192h-192zM377 0v193h192v-193h-192zM377 901v193h192v-193 h-192zM602 0v193h193v-193h-193zM602 901v193h193v-193h-193zM602 1352v192h193v-192h-193zM827 0v193h193v-29q0 -68 -48 -116t-116 -48h-29zM827 225v193h193v-193h-193zM827 451v192h193v-192h-193zM827 676v192h193v-192h-193zM827 901v193h29q68 0 116 -48.5t48 -115.5 v-29h-193z" />
<glyph unicode="&#xd8;" d="M152 164v29h192v-193h-29q-68 0 -115.5 48t-47.5 116zM152 225v193h192v-193h-192zM152 451v192h192v-192h-192zM152 676v192h192v-192h-192zM152 901v29q0 68 48 116t115 48h29v-193h-192zM377 0v193h192v-193h-192zM377 901v193h192v-193h-192zM602 0v193h193v-193 h-193zM602 901v193h193v-193h-193zM827 0v193h193v-29q0 -68 -48 -116t-116 -48h-29zM827 225v193h193v-193h-193zM827 451v192h193v-192h-193zM827 676v192h193v-192h-193zM827 901v193h29q68 0 116 -48.5t48 -115.5v-29h-193z" />
<glyph unicode="&#xd9;" d="M152 164v29h192v-193h-29q-68 0 -115.5 48t-47.5 116zM152 225v193h192v-193h-192zM152 451v192h192v-192h-192zM152 676v192h192v-192h-192zM152 901v193h192v-193h-192zM152 1352v192h192v-192h-192zM152 1577v29q0 68 48 115.5t115 47.5h29v-192h-192zM377 0v193h192 v-193h-192zM377 1352v192h192v-192h-192zM602 0v193h193v-193h-193zM827 0v193h193v-193h-193zM827 225v193h193v-193h-193zM827 451v192h193v-192h-193zM827 676v192h193v-192h-193zM827 901v193h193v-193h-193z" />
<glyph unicode="&#xda;" d="M152 164v29h192v-193h-29q-68 0 -115.5 48t-47.5 116zM152 225v193h192v-193h-192zM152 451v192h192v-192h-192zM152 676v192h192v-192h-192zM152 901v193h192v-193h-192zM152 1352v192h192v-192h-192zM377 0v193h192v-193h-192zM377 1352v192h192v-192h-192zM377 1577 v192h29q68 0 115.5 -48t47.5 -115v-29h-192zM602 0v193h193v-193h-193zM827 0v193h193v-193h-193zM827 225v193h193v-193h-193zM827 451v192h193v-192h-193zM827 676v192h193v-192h-193zM827 901v193h193v-193h-193z" />
<glyph unicode="&#xdb;" d="M152 164v29h192v-193h-29q-68 0 -115.5 48t-47.5 116zM152 225v193h192v-193h-192zM152 451v192h192v-192h-192zM152 676v192h192v-192h-192zM152 901v193h192v-193h-192zM377 0v193h192v-193h-192zM377 1352v28q0 68 48 116t116 48h28v-192h-192zM602 0v193h193v-193 h-193zM602 1352v192h29q68 0 116 -48t48 -116v-28h-193zM827 0v193h193v-193h-193zM827 225v193h193v-193h-193zM827 451v192h193v-192h-193zM827 676v192h193v-192h-193zM827 901v193h193v-193h-193z" />
<glyph unicode="&#xdc;" d="M152 164v29h192v-193h-29q-68 0 -115.5 48t-47.5 116zM152 225v193h192v-193h-192zM152 451v192h192v-192h-192zM152 676v192h192v-192h-192zM152 901v193h192v-193h-192zM152 1352v192h192v-192h-192zM377 0v193h192v-193h-192zM602 0v193h193v-193h-193zM602 1352v192 h193v-192h-193zM827 0v193h193v-193h-193zM827 225v193h193v-193h-193zM827 451v192h193v-192h-193zM827 676v192h193v-192h-193zM827 901v193h193v-193h-193z" />
<glyph unicode="&#xdd;" d="M152 0v193h192v-193h-192zM152 614v29h192v-192h-29q-68 0 -115.5 48t-47.5 115zM152 676v192h192v-192h-192zM152 901v193h192v-193h-192zM152 1352v192h192v-192h-192zM377 0v193h192v-193h-192zM377 451v192h192v-192h-192zM377 1352v192h192v-192h-192zM377 1577v192 h29q68 0 115.5 -48t47.5 -115v-29h-192zM602 0v193h193v-193h-193zM602 451v192h193v-192h-193zM827 0v193h193v-29q0 -68 -48 -116t-116 -48h-29zM827 225v193h193v-193h-193zM827 451v192h193v-192h-193zM827 676v192h193v-192h-193zM827 901v193h193v-193h-193z" />
<glyph unicode="&#xde;" d="M152 0v193h192v-193h-192zM152 225v193h192v-193h-192zM152 451v192h192v-192h-192zM152 676v192h192v-192h-192zM152 901v29q0 68 48 116t115 48h29v-193h-192zM377 164v29h192v-193h-28q-68 0 -116 48t-48 116zM377 225v193h192v-193h-192zM377 451v28q0 68 48 116 t116 48h28v-192h-192zM377 901v193h192v-193h-192zM602 0v193h193v-193h-193zM602 451v192h193v-192h-193zM602 901v193h193v-193h-193zM827 0v193h193v-193h-193zM827 451v192h193v-29q0 -68 -48 -115.5t-116 -47.5h-29zM827 676v192h193v-192h-193zM827 901v193h29 q68 0 116 -48.5t48 -115.5v-29h-193z" />
<glyph unicode="&#xdf;" d="M152 0v193h192v-193h-192zM152 -33h192v-192h-192v192zM152 225v193h192v-193h-192zM152 451v192h192v-192h-192zM152 676v192h192v-192h-192zM152 901v29q0 68 48 116t115 48h29v-193h-192zM377 0v193h192v-193h-192zM377 901v193h192v-193h-192zM602 0v193h193v-193 h-193zM602 451v192h193v-192h-193zM602 901v193h193v-193h-193zM827 0v193h193v-29q0 -68 -48 -116t-116 -48h-29zM827 225v193h29q68 0 116 -48t48 -116v-29h-193zM827 451v192h193v-29q0 -68 -48 -115.5t-116 -47.5h-29zM827 676v192h193v-192h-193zM827 901v193h29 q68 0 116 -48.5t48 -115.5v-29h-193z" />
<glyph unicode="&#xe0;" d="M152 164v29h192v-193h-29q-68 0 -115.5 48t-47.5 116zM152 225v193h192v-193h-192zM152 451v28q0 68 48 116t115 48h29v-192h-192zM152 901v193h192v-193h-192zM152 1352v192h192v-192h-192zM152 1577v29q0 68 48 115.5t115 47.5h29v-192h-192zM377 0v193h192v-193h-192z M377 451v192h192v-192h-192zM377 901v193h192v-193h-192zM377 1352v192h192v-192h-192zM602 0v193h193v-193h-193zM602 451v192h193v-192h-193zM602 901v193h193v-193h-193zM827 0v193h193v-29q0 -68 -48 -116t-116 -48h-29zM827 225v193h193v-193h-193zM827 451v192h193 v-192h-193zM827 676v192h193v-192h-193zM827 901v193h29q68 0 116 -48.5t48 -115.5v-29h-193z" />
<glyph unicode="&#xe1;" d="M152 164v29h192v-193h-29q-68 0 -115.5 48t-47.5 116zM152 225v193h192v-193h-192zM152 451v28q0 68 48 116t115 48h29v-192h-192zM152 901v193h192v-193h-192zM152 1352v192h192v-192h-192zM377 0v193h192v-193h-192zM377 451v192h192v-192h-192zM377 901v193h192v-193 h-192zM377 1352v192h192v-192h-192zM377 1577v192h29q68 0 115.5 -48t47.5 -115v-29h-192zM602 0v193h193v-193h-193zM602 451v192h193v-192h-193zM602 901v193h193v-193h-193zM827 0v193h193v-29q0 -68 -48 -116t-116 -48h-29zM827 225v193h193v-193h-193zM827 451v192h193 v-192h-193zM827 676v192h193v-192h-193zM827 901v193h29q68 0 116 -48.5t48 -115.5v-29h-193z" />
<glyph unicode="&#xe2;" d="M152 164v29h192v-193h-29q-68 0 -115.5 48t-47.5 116zM152 225v193h192v-193h-192zM152 451v28q0 68 48 116t115 48h29v-192h-192zM152 901v193h192v-193h-192zM377 0v193h192v-193h-192zM377 451v192h192v-192h-192zM377 901v193h192v-193h-192zM377 1352v28 q0 68 48 116t116 48h28v-192h-192zM602 0v193h193v-193h-193zM602 451v192h193v-192h-193zM602 901v193h193v-193h-193zM602 1352v192h29q68 0 116 -48t48 -116v-28h-193zM827 0v193h193v-29q0 -68 -48 -116t-116 -48h-29zM827 225v193h193v-193h-193zM827 451v192h193v-192 h-193zM827 676v192h193v-192h-193zM827 901v193h29q68 0 116 -48.5t48 -115.5v-29h-193z" />
<glyph unicode="&#xe3;" d="M152 164v29h192v-193h-29q-68 0 -115.5 48t-47.5 116zM152 225v193h192v-193h-192zM152 451v28q0 68 48 116t115 48h29v-192h-192zM152 901v193h192v-193h-192zM152 1352v192h192v-192h-192zM377 0v193h192v-193h-192zM377 451v192h192v-192h-192zM377 901v193h192v-193 h-192zM377 1352v192h192v-28q0 -68 -48 -116t-115 -48h-29zM377 1577v29q0 68 48 116t116 48h28v-193h-192zM602 0v193h193v-193h-193zM602 451v192h193v-192h-193zM602 901v193h193v-193h-193zM602 1577v193h193v-193h-193zM827 0v193h193v-29q0 -68 -48 -116t-116 -48h-29 zM827 225v193h193v-193h-193zM827 451v192h193v-192h-193zM827 676v192h193v-192h-193zM827 901v193h29q68 0 116 -48.5t48 -115.5v-29h-193z" />
<glyph unicode="&#xe4;" d="M152 164v29h192v-193h-29q-68 0 -115.5 48t-47.5 116zM152 225v193h192v-193h-192zM152 451v28q0 68 48 116t115 48h29v-192h-192zM152 901v193h192v-193h-192zM152 1352v192h192v-192h-192zM377 0v193h192v-193h-192zM377 451v192h192v-192h-192zM377 901v193h192v-193 h-192zM602 0v193h193v-193h-193zM602 451v192h193v-192h-193zM602 901v193h193v-193h-193zM602 1352v192h193v-192h-193zM827 0v193h193v-29q0 -68 -48 -116t-116 -48h-29zM827 225v193h193v-193h-193zM827 451v192h193v-192h-193zM827 676v192h193v-192h-193zM827 901v193 h29q68 0 116 -48.5t48 -115.5v-29h-193z" />
<glyph unicode="&#xe5;" d="M152 164v29h192v-193h-29q-68 0 -115.5 48t-47.5 116zM152 225v193h192v-193h-192zM152 451v28q0 68 48 116t115 48h29v-192h-192zM152 901v193h192v-193h-192zM377 0v193h192v-193h-192zM377 451v192h192v-192h-192zM377 901v193h192v-193h-192zM377 1288v29h192v-193 h-28q-68 0 -116 48.5t-48 115.5zM377 1350v28q0 68 48 116t116 48h28v-192h-192zM602 0v193h193v-193h-193zM602 451v192h193v-192h-193zM602 901v193h193v-193h-193zM602 1124v193h193v-29q0 -68 -48.5 -116t-115.5 -48h-29zM602 1350v192h29q68 0 116 -48t48 -116v-28 h-193zM827 0v193h193v-29q0 -68 -48 -116t-116 -48h-29zM827 225v193h193v-193h-193zM827 451v192h193v-192h-193zM827 676v192h193v-192h-193zM827 901v193h29q68 0 116 -48.5t48 -115.5v-29h-193z" />
<glyph unicode="&#xe6;" horiz-adv-x="1693" d="M152 164v29h192v-193h-29q-68 0 -115.5 48t-47.5 116zM152 225v193h192v-193h-192zM152 451v28q0 68 48 116t115 48h29v-192h-192zM152 901v193h192v-193h-192zM377 0v193h192v-193h-192zM377 451v192h192v-192h-192zM377 901v193h192v-193h-192zM602 0v193h193v-193 h-193zM602 451v192h193v-192h-193zM602 901v193h193v-193h-193zM827 0v193h193v-193h-29q-35 0 -67 14q-33 -14 -68 -14h-29zM827 225v193h193v-193h-193zM827 451v192h193v-192h-193zM827 676v192h193v-192h-193zM827 901v193h29q35 0 68 -15q33 14 67 15h29v-193h-193z M1053 0v193h192v-193h-192zM1053 451v192h192v-192h-192zM1053 901v193h192v-193h-192zM1278 0v193h192v-193h-192zM1278 451v192h192v-192h-192zM1278 901v193h192v-193h-192zM1503 0v193h193v-193h-193zM1503 451v192h193v-29q0 -68 -48.5 -115.5t-115.5 -47.5h-29z M1503 676v192h193v-192h-193zM1503 901v193h29q68 0 116 -48.5t48 -115.5v-29h-193z" />
<glyph unicode="&#xe7;" d="M152 164v29h192v-193h-29q-68 0 -115.5 48t-47.5 116zM152 225v193h192v-193h-192zM152 451v192h192v-192h-192zM152 676v192h192v-192h-192zM152 901v29q0 68 48 116t115 48h29v-193h-192zM377 0v193h192v-193h-192zM377 -258h192v-193h-192v193zM377 901v193h192v-193 h-192zM602 0v193h193v-193h-193zM602 -33h193v-192h-193v192zM602 -258h193v-29q0 -68 -48.5 -116t-115.5 -48h-29v193zM602 901v193h193v-193h-193zM827 0v193h193v-193h-193zM827 901v193h193v-193h-193z" />
<glyph unicode="&#xe8;" d="M152 164v29h192v-193h-29q-68 0 -115.5 48t-47.5 116zM152 225v193h192v-193h-192zM152 451v192h192v-192h-192zM152 676v192h192v-192h-192zM152 901v29q0 68 48 116t115 48h29v-193h-192zM152 1352v192h192v-192h-192zM152 1577v29q0 68 48 115.5t115 47.5h29v-192 h-192zM377 0v193h192v-193h-192zM377 451v192h192v-192h-192zM377 901v193h192v-193h-192zM377 1352v192h192v-192h-192zM602 0v193h193v-193h-193zM602 451v192h193v-192h-193zM602 901v193h193v-193h-193zM827 0v193h193v-193h-193zM827 451v192h193v-29q0 -68 -48 -115.5 t-116 -47.5h-29zM827 676v192h193v-192h-193zM827 901v193h29q68 0 116 -48.5t48 -115.5v-29h-193z" />
<glyph unicode="&#xe9;" d="M152 164v29h192v-193h-29q-68 0 -115.5 48t-47.5 116zM152 225v193h192v-193h-192zM152 451v192h192v-192h-192zM152 676v192h192v-192h-192zM152 901v29q0 68 48 116t115 48h29v-193h-192zM152 1352v192h192v-192h-192zM377 0v193h192v-193h-192zM377 451v192h192v-192 h-192zM377 901v193h192v-193h-192zM377 1352v192h192v-192h-192zM377 1577v192h29q68 0 115.5 -48t47.5 -115v-29h-192zM602 0v193h193v-193h-193zM602 451v192h193v-192h-193zM602 901v193h193v-193h-193zM827 0v193h193v-193h-193zM827 451v192h193v-29q0 -68 -48 -115.5 t-116 -47.5h-29zM827 676v192h193v-192h-193zM827 901v193h29q68 0 116 -48.5t48 -115.5v-29h-193z" />
<glyph unicode="&#xea;" d="M152 164v29h192v-193h-29q-68 0 -115.5 48t-47.5 116zM152 225v193h192v-193h-192zM152 451v192h192v-192h-192zM152 676v192h192v-192h-192zM152 901v29q0 68 48 116t115 48h29v-193h-192zM377 0v193h192v-193h-192zM377 451v192h192v-192h-192zM377 901v193h192v-193 h-192zM377 1352v28q0 68 48 116t116 48h28v-192h-192zM602 0v193h193v-193h-193zM602 451v192h193v-192h-193zM602 901v193h193v-193h-193zM602 1352v192h29q68 0 116 -48t48 -116v-28h-193zM827 0v193h193v-193h-193zM827 451v192h193v-29q0 -68 -48 -115.5t-116 -47.5h-29 zM827 676v192h193v-192h-193zM827 901v193h29q68 0 116 -48.5t48 -115.5v-29h-193z" />
<glyph unicode="&#xeb;" d="M152 164v29h192v-193h-29q-68 0 -115.5 48t-47.5 116zM152 225v193h192v-193h-192zM152 451v192h192v-192h-192zM152 676v192h192v-192h-192zM152 901v29q0 68 48 116t115 48h29v-193h-192zM152 1352v192h192v-192h-192zM377 0v193h192v-193h-192zM377 451v192h192v-192 h-192zM377 901v193h192v-193h-192zM602 0v193h193v-193h-193zM602 451v192h193v-192h-193zM602 901v193h193v-193h-193zM602 1352v192h193v-192h-193zM827 0v193h193v-193h-193zM827 451v192h193v-29q0 -68 -48 -115.5t-116 -47.5h-29zM827 676v192h193v-192h-193zM827 901 v193h29q68 0 116 -48.5t48 -115.5v-29h-193z" />
<glyph unicode="&#xec;" horiz-adv-x="344" d="M-73 1352v192h192v-192h-192zM-73 1577v29q0 68 48 115.5t115 47.5h29v-192h-192zM152 0v193h192v-193h-192zM152 225v193h192v-193h-192zM152 451v192h192v-192h-192zM152 676v192h28q68 0 116 -48t48 -115v-29h-192zM152 1352v192h192v-192h-192z" />
<glyph unicode="&#xed;" horiz-adv-x="344" d="M152 0v193h192v-193h-192zM152 225v193h192v-193h-192zM152 451v192h192v-192h-192zM152 676v192h28q68 0 116 -48t48 -115v-29h-192zM152 1352v192h192v-192h-192zM377 1352v192h192v-192h-192zM377 1577v192h29q68 0 115.5 -48t47.5 -115v-29h-192z" />
<glyph unicode="&#xee;" horiz-adv-x="344" d="M152 0v193h192v-193h-192zM152 225v193h192v-193h-192zM152 451v192h192v-192h-192zM152 676v192h28q68 0 116 -48t48 -115v-29h-192zM152 1352v28q0 68 48 116t116 48h28v-192h-192zM377 1352v192h29q68 0 116 -48t48 -116v-28h-193z" />
<glyph unicode="&#xef;" horiz-adv-x="344" d="M-73 1352v192h192v-192h-192zM152 0v193h192v-193h-192zM152 225v193h192v-193h-192zM152 451v192h192v-192h-192zM152 676v192h28q68 0 116 -48t48 -115v-29h-192zM377 1352v192h193v-192h-193z" />
<glyph unicode="&#xf0;" d="M152 164q0 -68 48 -116t115 -48h29v193h-192v-29zM152 225v193h192v-193h-192zM152 451v192h192v-192h-192zM152 676v192h192v-192h-192zM152 901h192v193h-29q-68 0 -115.5 -48.5t-47.5 -115.5v-29zM377 0v193h192v-193h-192zM377 225v193h192v-193h-192zM377 451v192 h192v-192h-192zM377 676v192h192v-192h-192zM377 901v193h192v-193h-192zM602 0v193h193v-193h-193zM602 225v193h193v-193h-193zM602 451v192h193v-192h-193zM602 676v192h193v-192h-193zM602 901v193h193v-193h-193zM827 0h29q68 0 116 48t48 116v29h-193v-193zM827 225 v193h193v-193h-193zM827 451v192h193v-192h-193zM827 676v192h193v-192h-193zM827 901h193v29q0 68 -48 116t-116 48h-29v-193z" />
<glyph unicode="&#xf1;" d="M152 0v193h192v-193h-192zM152 225v193h192v-193h-192zM152 451v192h192v-192h-192zM152 676v192h192v-192h-192zM152 901v193h192v-193h-192zM152 1352v192h192v-192h-192zM377 901v193h192v-193h-192zM377 1352v192h192v-28q0 -68 -48 -116t-115 -48h-29zM377 1577v29 q0 68 48 116t116 48h28v-193h-192zM602 901v193h193v-193h-193zM602 1577v193h193v-193h-193zM827 0v193h193v-193h-193zM827 225v193h193v-193h-193zM827 451v192h193v-192h-193zM827 676v192h193v-192h-193zM827 901v193h29q68 0 116 -48.5t48 -115.5v-29h-193z" />
<glyph unicode="&#xf2;" d="M152 164v29h192v-193h-29q-68 0 -115.5 48t-47.5 116zM152 225v193h192v-193h-192zM152 451v192h192v-192h-192zM152 676v192h192v-192h-192zM152 901v29q0 68 48 116t115 48h29v-193h-192zM152 1352v192h192v-192h-192zM152 1577v29q0 68 48 115.5t115 47.5h29v-192 h-192zM377 0v193h192v-193h-192zM377 901v193h192v-193h-192zM377 1352v192h192v-192h-192zM602 0v193h193v-193h-193zM602 901v193h193v-193h-193zM827 0v193h193v-29q0 -68 -48 -116t-116 -48h-29zM827 225v193h193v-193h-193zM827 451v192h193v-192h-193zM827 676v192 h193v-192h-193zM827 901v193h29q68 0 116 -48.5t48 -115.5v-29h-193z" />
<glyph unicode="&#xf3;" d="M152 164v29h192v-193h-29q-68 0 -115.5 48t-47.5 116zM152 225v193h192v-193h-192zM152 451v192h192v-192h-192zM152 676v192h192v-192h-192zM152 901v29q0 68 48 116t115 48h29v-193h-192zM152 1352v192h192v-192h-192zM377 0v193h192v-193h-192zM377 901v193h192v-193 h-192zM377 1352v192h192v-192h-192zM377 1577v192h29q68 0 115.5 -48t47.5 -115v-29h-192zM602 0v193h193v-193h-193zM602 901v193h193v-193h-193zM827 0v193h193v-29q0 -68 -48 -116t-116 -48h-29zM827 225v193h193v-193h-193zM827 451v192h193v-192h-193zM827 676v192h193 v-192h-193zM827 901v193h29q68 0 116 -48.5t48 -115.5v-29h-193z" />
<glyph unicode="&#xf4;" d="M152 164v29h192v-193h-29q-68 0 -115.5 48t-47.5 116zM152 225v193h192v-193h-192zM152 451v192h192v-192h-192zM152 676v192h192v-192h-192zM152 901v29q0 68 48 116t115 48h29v-193h-192zM377 0v193h192v-193h-192zM377 901v193h192v-193h-192zM377 1352v28 q0 68 48 116t116 48h28v-192h-192zM602 0v193h193v-193h-193zM602 901v193h193v-193h-193zM602 1352v192h29q68 0 116 -48t48 -116v-28h-193zM827 0v193h193v-29q0 -68 -48 -116t-116 -48h-29zM827 225v193h193v-193h-193zM827 451v192h193v-192h-193zM827 676v192h193v-192 h-193zM827 901v193h29q68 0 116 -48.5t48 -115.5v-29h-193z" />
<glyph unicode="&#xf5;" d="M152 164v29h192v-193h-29q-68 0 -115.5 48t-47.5 116zM152 225v193h192v-193h-192zM152 451v192h192v-192h-192zM152 676v192h192v-192h-192zM152 901v29q0 68 48 116t115 48h29v-193h-192zM152 1352v192h192v-192h-192zM377 0v193h192v-193h-192zM377 901v193h192v-193 h-192zM377 1352v192h192v-28q0 -68 -48 -116t-115 -48h-29zM377 1577v29q0 68 48 116t116 48h28v-193h-192zM602 0v193h193v-193h-193zM602 901v193h193v-193h-193zM602 1577v193h193v-193h-193zM827 0v193h193v-29q0 -68 -48 -116t-116 -48h-29zM827 225v193h193v-193h-193 zM827 451v192h193v-192h-193zM827 676v192h193v-192h-193zM827 901v193h29q68 0 116 -48.5t48 -115.5v-29h-193z" />
<glyph unicode="&#xf6;" d="M152 164v29h192v-193h-29q-68 0 -115.5 48t-47.5 116zM152 225v193h192v-193h-192zM152 451v192h192v-192h-192zM152 676v192h192v-192h-192zM152 901v29q0 68 48 116t115 48h29v-193h-192zM152 1352v192h192v-192h-192zM377 0v193h192v-193h-192zM377 901v193h192v-193 h-192zM602 0v193h193v-193h-193zM602 901v193h193v-193h-193zM602 1352v192h193v-192h-193zM827 0v193h193v-29q0 -68 -48 -116t-116 -48h-29zM827 225v193h193v-193h-193zM827 451v192h193v-192h-193zM827 676v192h193v-192h-193zM827 901v193h29q68 0 116 -48.5t48 -115.5 v-29h-193z" />
<glyph unicode="&#xf7;" d="M152 164q0 -68 48 -116t115 -48h29v193h-192v-29zM152 225v193h192v-193h-192zM152 451v192h192v-192h-192zM152 676v192h192v-192h-192zM152 901h192v193h-29q-68 0 -115.5 -48.5t-47.5 -115.5v-29zM377 0v193h192v-193h-192zM377 225v193h192v-193h-192zM377 451v192 h192v-192h-192zM377 676v192h192v-192h-192zM377 901v193h192v-193h-192zM602 0v193h193v-193h-193zM602 225v193h193v-193h-193zM602 451v192h193v-192h-193zM602 676v192h193v-192h-193zM602 901v193h193v-193h-193zM827 0h29q68 0 116 48t48 116v29h-193v-193zM827 225 v193h193v-193h-193zM827 451v192h193v-192h-193zM827 676v192h193v-192h-193zM827 901h193v29q0 68 -48 116t-116 48h-29v-193z" />
<glyph unicode="&#xf8;" d="M152 164v29h192v-193h-29q-68 0 -115.5 48t-47.5 116zM152 225v193h192v-193h-192zM152 451v192h192v-192h-192zM152 676v192h192v-192h-192zM152 901v29q0 68 48 116t115 48h29v-193h-192zM377 0v193h192v-193h-192zM377 901v193h192v-193h-192zM602 0v193h193v-193 h-193zM602 901v193h193v-193h-193zM827 0v193h193v-29q0 -68 -48 -116t-116 -48h-29zM827 225v193h193v-193h-193zM827 451v192h193v-192h-193zM827 676v192h193v-192h-193zM827 901v193h29q68 0 116 -48.5t48 -115.5v-29h-193z" />
<glyph unicode="&#xf9;" d="M152 164v29h192v-193h-29q-68 0 -115.5 48t-47.5 116zM152 225v193h192v-193h-192zM152 451v192h192v-192h-192zM152 676v192h192v-192h-192zM152 901v193h192v-193h-192zM152 1352v192h192v-192h-192zM152 1577v29q0 68 48 115.5t115 47.5h29v-192h-192zM377 0v193h192 v-193h-192zM377 1352v192h192v-192h-192zM602 0v193h193v-193h-193zM827 0v193h193v-193h-193zM827 225v193h193v-193h-193zM827 451v192h193v-192h-193zM827 676v192h193v-192h-193zM827 901v193h193v-193h-193z" />
<glyph unicode="&#xfa;" d="M152 164v29h192v-193h-29q-68 0 -115.5 48t-47.5 116zM152 225v193h192v-193h-192zM152 451v192h192v-192h-192zM152 676v192h192v-192h-192zM152 901v193h192v-193h-192zM152 1352v192h192v-192h-192zM377 0v193h192v-193h-192zM377 1352v192h192v-192h-192zM377 1577 v192h29q68 0 115.5 -48t47.5 -115v-29h-192zM602 0v193h193v-193h-193zM827 0v193h193v-193h-193zM827 225v193h193v-193h-193zM827 451v192h193v-192h-193zM827 676v192h193v-192h-193zM827 901v193h193v-193h-193z" />
<glyph unicode="&#xfb;" d="M152 164v29h192v-193h-29q-68 0 -115.5 48t-47.5 116zM152 225v193h192v-193h-192zM152 451v192h192v-192h-192zM152 676v192h192v-192h-192zM152 901v193h192v-193h-192zM377 0v193h192v-193h-192zM377 1352v28q0 68 48 116t116 48h28v-192h-192zM602 0v193h193v-193 h-193zM602 1352v192h29q68 0 116 -48t48 -116v-28h-193zM827 0v193h193v-193h-193zM827 225v193h193v-193h-193zM827 451v192h193v-192h-193zM827 676v192h193v-192h-193zM827 901v193h193v-193h-193z" />
<glyph unicode="&#xfc;" d="M152 164v29h192v-193h-29q-68 0 -115.5 48t-47.5 116zM152 225v193h192v-193h-192zM152 451v192h192v-192h-192zM152 676v192h192v-192h-192zM152 901v193h192v-193h-192zM152 1352v192h192v-192h-192zM377 0v193h192v-193h-192zM602 0v193h193v-193h-193zM602 1352v192 h193v-192h-193zM827 0v193h193v-193h-193zM827 225v193h193v-193h-193zM827 451v192h193v-192h-193zM827 676v192h193v-192h-193zM827 901v193h193v-193h-193z" />
<glyph unicode="&#xfe;" d="M152 0v193h192v-193h-192zM152 225v193h192v-193h-192zM152 451v192h192v-192h-192zM152 676v192h192v-192h-192zM152 901v29q0 68 48 116t115 48h29v-193h-192zM377 164v29h192v-193h-28q-68 0 -116 48t-48 116zM377 225v29q0 68 48 116t116 48h28v-193h-192zM377 901 v193h192v-193h-192zM602 0v193h193v-193h-193zM602 225v193h193v-193h-193zM602 901v193h193v-193h-193zM827 0v193h193v-193h-193zM827 225v193h193v-29q0 -68 -48 -116t-116 -48h-29zM827 451v192h193v-192h-193zM827 676v192h193v-192h-193zM827 901v193h29 q68 0 116 -48.5t48 -115.5v-29h-193z" />
<glyph unicode="&#xff;" d="M152 0v193h192v-193h-192zM152 614v29h192v-192h-29q-68 0 -115.5 48t-47.5 115zM152 676v192h192v-192h-192zM152 901v193h192v-193h-192zM152 1352v192h192v-192h-192zM377 0v193h192v-193h-192zM377 451v192h192v-192h-192zM602 0v193h193v-193h-193zM602 451v192h193 v-192h-193zM602 1352v192h193v-192h-193zM827 0v193h193v-29q0 -68 -48 -116t-116 -48h-29zM827 225v193h193v-193h-193zM827 451v192h193v-192h-193zM827 676v192h193v-192h-193zM827 901v193h193v-193h-193z" />
<glyph unicode="&#x152;" horiz-adv-x="1693" d="M152 164v29h192v-193h-29q-68 0 -115.5 48t-47.5 116zM152 225v193h192v-193h-192zM152 451v192h192v-192h-192zM152 676v192h192v-192h-192zM152 901v29q0 68 48 116t115 48h29v-193h-192zM377 0v193h192v-193h-192zM377 901v193h192v-193h-192zM602 0v193h193v-193 h-193zM602 901v193h193v-193h-193zM827 0v193h193v-193h-29q-35 0 -67 14q-33 -14 -68 -14h-29zM827 225v193h193v-193h-193zM827 451v192h193v-192h-193zM827 676v192h193v-192h-193zM827 901v193h29q35 0 68 -15q33 14 67 15h29v-193h-193zM1053 0v193h192v-193h-192z M1053 451v192h192v-192h-192zM1053 901v193h192v-193h-192zM1278 0v193h192v-193h-192zM1278 451v192h192v-192h-192zM1278 901v193h192v-193h-192zM1503 0v193h193v-193h-193zM1503 901v193h193v-193h-193z" />
<glyph unicode="&#x153;" horiz-adv-x="1693" d="M152 164v29h192v-193h-29q-68 0 -115.5 48t-47.5 116zM152 225v193h192v-193h-192zM152 451v192h192v-192h-192zM152 676v192h192v-192h-192zM152 901v29q0 68 48 116t115 48h29v-193h-192zM377 0v193h192v-193h-192zM377 901v193h192v-193h-192zM602 0v193h193v-193 h-193zM602 901v193h193v-193h-193zM827 0v193h193v-193h-29q-35 0 -67 14q-33 -14 -68 -14h-29zM827 225v193h193v-193h-193zM827 451v192h193v-192h-193zM827 676v192h193v-192h-193zM827 901v193h29q35 0 68 -15q33 14 67 15h29v-193h-193zM1053 0v193h192v-193h-192z M1053 451v192h192v-192h-192zM1053 901v193h192v-193h-192zM1278 0v193h192v-193h-192zM1278 451v192h192v-192h-192zM1278 901v193h192v-193h-192zM1503 0v193h193v-193h-193zM1503 451v192h193v-29q0 -68 -48.5 -115.5t-115.5 -47.5h-29zM1503 676v192h193v-192h-193z M1503 901v193h29q68 0 116 -48.5t48 -115.5v-29h-193z" />
<glyph unicode="&#x178;" d="M152 0v193h192v-193h-192zM152 614v29h192v-192h-29q-68 0 -115.5 48t-47.5 115zM152 676v192h192v-192h-192zM152 901v193h192v-193h-192zM152 1352v192h192v-192h-192zM377 0v193h192v-193h-192zM377 451v192h192v-192h-192zM602 0v193h193v-193h-193zM602 451v192h193 v-192h-193zM602 1352v192h193v-192h-193zM827 0v193h193v-29q0 -68 -48 -116t-116 -48h-29zM827 225v193h193v-193h-193zM827 451v192h193v-192h-193zM827 676v192h193v-192h-193zM827 901v193h193v-193h-193z" />
<glyph unicode="&#x2c6;" d="M377 1352v28q0 68 48 116t116 48h28v-192h-192zM602 1352v192h29q68 0 116 -48t48 -116v-28h-193z" />
<glyph unicode="&#x2dc;" d="M152 1352v192h192v-192h-192zM377 1352v192h192v-28q0 -68 -48 -116t-115 -48h-29zM377 1577v29q0 68 48 116t116 48h28v-193h-192zM602 1577v193h193v-193h-193z" />
<glyph unicode="&#x2000;" horiz-adv-x="885" />
<glyph unicode="&#x2001;" horiz-adv-x="1770" />
<glyph unicode="&#x2002;" horiz-adv-x="885" />
<glyph unicode="&#x2003;" horiz-adv-x="1770" />
<glyph unicode="&#x2004;" horiz-adv-x="590" />
<glyph unicode="&#x2005;" horiz-adv-x="442" />
<glyph unicode="&#x2006;" horiz-adv-x="295" />
<glyph unicode="&#x2007;" horiz-adv-x="295" />
<glyph unicode="&#x2008;" horiz-adv-x="221" />
<glyph unicode="&#x2009;" horiz-adv-x="354" />
<glyph unicode="&#x200a;" horiz-adv-x="98" />
<glyph unicode="&#x2010;" horiz-adv-x="794" d="M152 451v192h192v-192h-192zM377 451v192h192v-192h-192zM602 451v192h193v-192h-193z" />
<glyph unicode="&#x2011;" horiz-adv-x="794" d="M152 451v192h192v-192h-192zM377 451v192h192v-192h-192zM602 451v192h193v-192h-193z" />
<glyph unicode="&#x2012;" horiz-adv-x="794" d="M152 451v192h192v-192h-192zM377 451v192h192v-192h-192zM602 451v192h193v-192h-193z" />
<glyph unicode="&#x2013;" horiz-adv-x="569" d="M152 451v192h192v-192h-192zM377 451v192h192v-192h-192z" />
<glyph unicode="&#x2014;" d="M152 451v192h192v-192h-192zM377 451v192h192v-192h-192zM602 451v192h193v-192h-193zM827 451v192h193v-192h-193z" />
<glyph unicode="&#x2018;" horiz-adv-x="344" d="M152 676h192v192h-192v-192zM152 901h192v193h-29q-68 0 -115.5 -48.5t-47.5 -115.5v-29z" />
<glyph unicode="&#x2019;" horiz-adv-x="344" d="M152 840v28h192v-192h-29q-68 0 -115.5 48t-47.5 116zM152 901v193h192v-193h-192z" />
<glyph unicode="&#x201a;" d="M152 164q0 -68 48 -116t115 -48h29v193h-192v-29zM152 225v193h192v-193h-192zM152 451v192h192v-192h-192zM152 676v192h192v-192h-192zM152 901h192v193h-29q-68 0 -115.5 -48.5t-47.5 -115.5v-29zM377 0v193h192v-193h-192zM377 225v193h192v-193h-192zM377 451v192 h192v-192h-192zM377 676v192h192v-192h-192zM377 901v193h192v-193h-192zM602 0v193h193v-193h-193zM602 225v193h193v-193h-193zM602 451v192h193v-192h-193zM602 676v192h193v-192h-193zM602 901v193h193v-193h-193zM827 0h29q68 0 116 48t48 116v29h-193v-193zM827 225 v193h193v-193h-193zM827 451v192h193v-192h-193zM827 676v192h193v-192h-193zM827 901h193v29q0 68 -48 116t-116 48h-29v-193z" />
<glyph unicode="&#x201c;" horiz-adv-x="569" d="M152 676h192v192h-192v-192zM152 901h192v193h-29q-68 0 -115.5 -48.5t-47.5 -115.5v-29zM377 676h192v192h-192v-192zM377 901h192v193h-28q-68 0 -116 -48.5t-48 -115.5v-29z" />
<glyph unicode="&#x201d;" horiz-adv-x="569" d="M152 676h28q68 0 116 48t48 116v28h-192v-192zM152 901h192v193h-192v-193zM377 676h29q68 0 115.5 48t47.5 116v28h-192v-192zM377 901h192v193h-192v-193z" />
<glyph unicode="&#x201e;" d="M152 164q0 -68 48 -116t115 -48h29v193h-192v-29zM152 225v193h192v-193h-192zM152 451v192h192v-192h-192zM152 676v192h192v-192h-192zM152 901h192v193h-29q-68 0 -115.5 -48.5t-47.5 -115.5v-29zM377 0v193h192v-193h-192zM377 225v193h192v-193h-192zM377 451v192 h192v-192h-192zM377 676v192h192v-192h-192zM377 901v193h192v-193h-192zM602 0v193h193v-193h-193zM602 225v193h193v-193h-193zM602 451v192h193v-192h-193zM602 676v192h193v-192h-193zM602 901v193h193v-193h-193zM827 0h29q68 0 116 48t48 116v29h-193v-193zM827 225 v193h193v-193h-193zM827 451v192h193v-192h-193zM827 676v192h193v-192h-193zM827 901h193v29q0 68 -48 116t-116 48h-29v-193z" />
<glyph unicode="&#x2022;" horiz-adv-x="571" d="M152 389v29h192v-193h-29q-68 0 -115.5 48.5t-47.5 115.5zM152 451v28q0 68 48 116t115 48h29v-192h-192zM377 225v193h192v-29q0 -68 -48 -116t-115 -48h-29zM377 451v192h29q68 0 115.5 -48t47.5 -116v-28h-192z" />
<glyph unicode="&#x2026;" horiz-adv-x="1243" d="M152 0v193h192v-193h-192zM602 0v193h193v-193h-193zM1053 0v193h192v-193h-192z" />
<glyph unicode="&#x202f;" horiz-adv-x="354" />
<glyph unicode="&#x2039;" horiz-adv-x="569" d="M152 389v29h192v-193h-29q-68 0 -115.5 48.5t-47.5 115.5zM152 451v28q0 68 48 116t115 48h29v-192h-192zM377 225v193h192v-193h-192zM377 451v192h192v-192h-192z" />
<glyph unicode="&#x203a;" horiz-adv-x="569" d="M152 225h192v193h-192v-193zM152 451h192v192h-192v-192zM377 225h29q68 0 115.5 48.5t47.5 115.5v29h-192v-193zM377 451h192v28q0 68 -48 116t-115 48h-29v-192z" />
<glyph unicode="&#x205f;" horiz-adv-x="442" />
<glyph unicode="&#x2122;" horiz-adv-x="1921" d="M152 901v193h192v-193h-192zM377 451v192h192v-192h-192zM377 676v192h192v-192h-192zM377 901v193h192v-193h-192zM602 901v193h193v-193h-193zM827 451v192h193v-192h-193zM827 676v192h193v-192h-193zM827 901v193h193v-193h-193zM1053 901v193h192v-193h-192z M1278 451v192h192v-192h-192zM1278 676v192h192v-192h-192zM1278 901v193h29q68 0 115.5 -48.5t47.5 -115.5v-29h-192zM1503 901v29q0 68 48 116t116 48h29v-193h-193zM1729 451v192h192v-192h-192zM1729 676v192h192v-192h-192zM1729 901v193h28q68 0 116 -48.5t48 -115.5 v-29h-192z" />
<glyph unicode="&#xe000;" horiz-adv-x="1095" d="M0 0v1096h1096v-1096h-1096z" />
</font>
</defs>
</svg>
